<svg width="796" height="355" viewBox="0 0 796 355" fill="none" xmlns="http://www.w3.org/2000/svg">
<mask id="mask0_2319_1142" style="mask-type:luminance" maskUnits="userSpaceOnUse" x="6" y="45" width="783" height="269">
<path d="M30.123 45.9727L788.236 168.81L764.777 313.589L6.66445 190.751L30.123 45.9727Z" fill="white"/>
</mask>
<g mask="url(#mask0_2319_1142)">
<path d="M689.27 301.043L673.98 258.582L624.898 270.769L625.756 230.307L557.35 158.272L462.794 225.519L462.512 225.399L309.318 162.768L309.227 162.647L290.302 138.059L243.41 142.628L265.626 168.367L238.39 206.238L185.08 163.278L185.209 162.903L212.725 82.6035L177.244 124.235L125.242 87.0433L144.142 130.648L83.7335 202.679L30.4332 109.871L-7.33243 127.574L-7.80625 126.558L30.8907 108.415L83.9028 200.723L142.837 130.458L122.601 83.7767L177.057 122.722L215.697 77.3815L186.398 162.895L238.172 204.62L264.197 168.426L241.14 141.722L290.814 136.881L310.023 161.837L462.652 224.245L557.49 156.791L557.824 157.14L626.888 229.868L626.05 269.325L674.692 257.246L689.59 298.615L758.817 199.052L776.597 237.093L844.735 191.762L845.359 192.697L776.134 238.749L758.629 201.29L689.27 301.043Z" fill="#3E5FBA"/>
</g>
<mask id="mask1_2319_1142" style="mask-type:luminance" maskUnits="userSpaceOnUse" x="6" y="14" width="788" height="300">
<path d="M35.2422 14.3848L793.355 137.223L764.778 313.589L6.66535 190.751L35.2422 14.3848Z" fill="white"/>
</mask>
<g mask="url(#mask1_2319_1142)">
<path d="M83.8338 202.416L83.4764 202.147L-3.35567 136.08L-2.67812 135.188L83.8025 200.981L123.336 168.132L123.508 168.112L185.483 162.547L205.92 141.271L206.279 141.429L264.756 167.709L290.332 136.861L290.656 136.914L446.13 163.984L556.279 99.5268L606.622 192.025L674.417 257.218L834.903 163.836L835.468 164.809L674.248 258.615L605.724 192.713L605.679 192.637L555.848 101.077L446.34 165.162L290.783 138.079L265.071 169.085L264.683 168.911L206.176 142.621L185.999 163.628L123.783 169.217L83.8338 202.416Z" fill="#3E5FBA"/>
</g>
<mask id="mask2_2319_1142" style="mask-type:luminance" maskUnits="userSpaceOnUse" x="0" y="103" width="88" height="139">
<path d="M20.7402 103.885L87.8648 114.761L67.3918 241.113L0.267278 230.237L20.7402 103.885Z" fill="white"/>
</mask>
<g mask="url(#mask2_2319_1142)">
<path d="M28.8853 233.56L9.66772 156.393L10.7565 156.121L29.4169 231.06L62.9764 188.094L81.595 143.751L10.9352 104.285L11.4788 103.307L83.0194 143.264L63.9543 188.669L63.9083 188.725L28.8853 233.56Z" fill="#3E5FBA"/>
</g>
<mask id="mask3_2319_1142" style="mask-type:luminance" maskUnits="userSpaceOnUse" x="0" y="126" width="85" height="116">
<path d="M17.1152 126.26L84.2398 137.136L67.3923 241.113L0.267697 230.237L17.1152 126.26Z" fill="white"/>
</mask>
<g mask="url(#mask3_2319_1142)">
<path d="M28.6512 234.257L25.6919 141.089L9.06155 140.663L9.09587 139.54L25.2801 139.951L16.7259 127L17.6598 126.381L26.646 139.988L83.5257 141.443L28.6512 234.257ZM26.8112 141.117L29.6509 230.367L81.5835 142.521L26.8112 141.117Z" fill="#3E5FBA"/>
</g>
<mask id="mask4_2319_1142" style="mask-type:luminance" maskUnits="userSpaceOnUse" x="4" y="95" width="248" height="145">
<path d="M22.0195 95.9883L251.033 133.096L233.759 239.705L4.74547 202.598L22.0195 95.9883Z" fill="white"/>
</mask>
<g mask="url(#mask4_2319_1142)">
<path d="M113.909 219.9L113.168 219.131L4.16605 106.56L4.97423 105.773L113.23 217.579L123.026 168.488L142.132 131.099L184.884 161.78L176.316 122.281L206.476 141.551L237.851 203.344L241.715 142.143L242.834 142.208L238.71 207.515L205.616 142.335L177.985 124.678L186.598 164.395L142.536 132.774L124.094 168.862L113.909 219.9Z" fill="#3E5FBA"/>
</g>
<mask id="mask5_2319_1142" style="mask-type:luminance" maskUnits="userSpaceOnUse" x="178" y="57" width="613" height="229">
<path d="M199.836 57.2637L790.795 153.017L769.256 285.95L178.297 190.197L199.836 57.2637Z" fill="white"/>
</mask>
<g mask="url(#mask5_2319_1142)">
<path d="M267.651 203.968L264.401 168.929L183.332 163.487L240.369 139.546L206.096 142.503L205.997 141.384L247.404 137.81L188.147 162.684L265.427 167.872L268.553 201.524L309.249 161.929L367.403 85.1801L367.858 85.6336L446.45 163.999L557.543 156.959L557.688 157.035L669.691 217.092L758.702 199.604L758.79 199.613L798.891 204.232L798.762 205.351L758.745 200.74L669.511 218.271L557.294 158.1L446.015 165.153L367.523 86.8827L310.088 162.677L310.057 162.704L267.651 203.968Z" fill="#3E5FBA"/>
</g>
<mask id="mask6_2319_1142" style="mask-type:luminance" maskUnits="userSpaceOnUse" x="10" y="94" width="171" height="98">
<path d="M22.2324 94.6719L180.173 120.263L168.657 191.336L10.7164 165.745L22.2324 94.6719Z" fill="white"/>
</mask>
<g mask="url(#mask6_2319_1142)">
<path d="M109.626 180.985L108.887 180.142L121.854 168.757L-2.53218 132.21L-2.21509 131.132L120.045 167.056L81.0415 141.667L142.207 131.391L178.864 120.204L124.051 168.322L127.076 170.295L123.128 169.133L109.626 180.985ZM84.0686 142.295L123.073 167.683L174.207 122.8L142.463 132.482L142.429 132.493L84.0686 142.295Z" fill="#3E5FBA"/>
</g>
<path d="M238.58 205.9L237.973 204.957L274.961 181.082L290.239 136.678L323.215 153.418L386.613 125.131L445.087 164.58L445.145 164.774L463.636 225.978L462.466 225.382L323.181 154.668L306.278 162.207L275.891 181.818L268.63 202.928L267.565 202.561L274.366 182.8L238.58 205.9ZM324.501 154.074L461.806 223.787L444.133 165.291L386.499 126.416L324.501 154.074ZM290.879 138.264L276.486 180.1L305.748 161.214L305.783 161.193L321.89 154.005L290.879 138.264Z" fill="#3E5FBA"/>
<path d="M264.818 167.841L310.853 159.635L311.048 160.743L265.013 168.949L264.818 167.841Z" fill="#3E5FBA"/>
<mask id="mask7_2319_1142" style="mask-type:luminance" maskUnits="userSpaceOnUse" x="458" y="84" width="336" height="213">
<path d="M484.48 84.4746L793.78 134.591L767.549 296.479L458.249 246.363L484.48 84.4746Z" fill="white"/>
</mask>
<g mask="url(#mask7_2319_1142)">
<path d="M623.613 272.219L607.523 194.473L557.768 156.078L557.764 155.813L556.497 99.9063L463.169 225.217L462.27 224.544L557.54 96.6248L558.882 155.52L608.538 193.84L624.408 270.533L799.368 178.741L799.888 179.733L623.613 272.219Z" fill="#3E5FBA"/>
</g>
<path d="M445.851 161.771L445.172 160.88L544.671 85.179L558.079 158.697L556.975 158.903L543.898 87.1801L445.851 161.771Z" fill="#3E5FBA"/>
<path d="M671.901 259.755L629.852 232.644L630.458 231.703L670.635 257.603L668.224 221.165L628.627 231.575L606.768 193.832L607.734 193.271L629.171 230.27L669.247 219.732L671.901 259.755Z" fill="#3E5FBA"/>
<path d="M629.358 229.893L629.367 228.765L716.358 229.733L748.424 207.281L749.061 208.202L716.708 230.861L629.358 229.893Z" fill="#3E5FBA"/>
<path d="M716.431 230.853L716.387 230.836L667.776 217.324L668.027 216.23L773.514 234.995L773.366 236.106L716.431 230.853ZM679.448 219.4L716.638 229.742L760.159 233.76L679.448 219.4Z" fill="#3E5FBA"/>
<path d="M690.664 302.832L715.989 230.087L717.049 230.454L691.722 303.204L690.664 302.832Z" fill="#3E5FBA"/>
<mask id="mask8_2319_1142" style="mask-type:luminance" maskUnits="userSpaceOnUse" x="755" y="196" width="29" height="22">
<path d="M758.109 196.346L783.117 200.398L780.344 217.508L755.337 213.456L758.109 196.346Z" fill="white"/>
</mask>
<g mask="url(#mask8_2319_1142)">
<path d="M758.422 197.579L758.819 196.53L828.341 222.827L827.943 223.881L758.422 197.579Z" fill="#3E5FBA"/>
</g>
<mask id="mask9_2319_1142" style="mask-type:luminance" maskUnits="userSpaceOnUse" x="771" y="179" width="16" height="61">
<path d="M781.051 179.803L786.315 180.656L776.719 239.883L771.454 239.03L781.051 179.803Z" fill="white"/>
</mask>
<g mask="url(#mask9_2319_1142)">
<path d="M772.474 238.236L812.879 185.683L813.764 186.37L773.36 238.918L772.474 238.236Z" fill="#3E5FBA"/>
</g>
<path d="M40.5271 113.871C40.4596 114.287 40.3519 114.692 40.2038 115.085C40.0557 115.478 39.8742 115.849 39.6523 116.209C39.4364 116.564 39.1819 116.898 38.8947 117.205C38.6127 117.513 38.2988 117.789 37.9583 118.034C37.6178 118.28 37.2565 118.49 36.8754 118.661C36.4935 118.836 36.1019 118.973 35.6956 119.071C35.2842 119.168 34.8743 119.223 34.4548 119.24C34.0362 119.251 33.6182 119.225 33.2069 119.159C32.7956 119.092 32.391 118.984 31.9973 118.841C31.6045 118.693 31.2329 118.512 30.8731 118.29C30.5185 118.069 30.1902 117.815 29.8833 117.528C29.5755 117.246 29.2992 116.932 29.0536 116.592C28.808 116.251 28.5975 115.89 28.4271 115.509C28.2515 115.127 28.1153 114.73 28.0227 114.325C27.9258 113.913 27.8709 113.503 27.8544 113.084C27.838 112.664 27.8635 112.246 27.931 111.83C27.9976 111.419 28.1054 111.014 28.2535 110.621C28.4015 110.228 28.5839 109.852 28.805 109.497C29.0217 109.136 29.2754 108.808 29.5625 108.501C29.8446 108.193 30.1584 107.917 30.4989 107.671C30.8395 107.426 31.2007 107.215 31.5827 107.04C31.9646 106.864 32.3553 106.732 32.7616 106.635C33.173 106.538 33.5829 106.483 34.0024 106.466C34.4219 106.45 34.8399 106.475 35.2512 106.542C35.6625 106.609 36.0671 106.716 36.46 106.864C36.8528 107.013 37.2244 107.194 37.5841 107.416C37.9388 107.637 38.2678 107.886 38.5748 108.173C38.8818 108.46 39.1581 108.774 39.4036 109.114C39.6492 109.455 39.8598 109.816 40.0302 110.197C40.2057 110.579 40.3428 110.971 40.4345 111.381C40.5323 111.788 40.5864 112.203 40.6028 112.622C40.6193 113.042 40.5938 113.459 40.5271 113.871Z" fill="#3E5FBA"/>
<mask id="mask10_2319_1142" style="mask-type:luminance" maskUnits="userSpaceOnUse" x="22" y="223" width="16" height="15">
<path d="M24.3477 223.332L37.5093 225.465L35.5367 237.639L22.375 235.507L24.3477 223.332Z" fill="white"/>
</mask>
<g mask="url(#mask10_2319_1142)">
<path d="M35.1704 231.824C35.1121 232.184 35.0178 232.538 34.8892 232.876C34.7597 233.219 34.6011 233.547 34.4081 233.859C34.2203 234.171 33.9998 234.458 33.7501 234.728C33.5013 234.994 33.2301 235.235 32.9322 235.445C32.6387 235.662 32.3244 235.843 31.9937 235.995C31.6579 236.146 31.3168 236.265 30.9601 236.35C30.6086 236.435 30.2474 236.482 29.881 236.497C29.5197 236.512 29.1549 236.485 28.795 236.426C28.4351 236.368 28.0853 236.28 27.7422 236.15C27.3992 236.021 27.0765 235.863 26.7648 235.67C26.4531 235.477 26.167 235.257 25.9013 235.008C25.6356 234.759 25.3946 234.488 25.1792 234.189C24.9681 233.896 24.7817 233.581 24.6347 233.251C24.4833 232.916 24.3645 232.574 24.2798 232.218C24.1951 231.861 24.1481 231.5 24.1336 231.134C24.1234 230.773 24.1457 230.407 24.2041 230.048C24.2624 229.688 24.3567 229.334 24.4802 228.995C24.6096 228.652 24.7683 228.324 24.9612 228.012C25.1542 227.701 25.3747 227.414 25.6243 227.144C25.868 226.877 26.1443 226.637 26.4379 226.421C26.7358 226.21 27.0501 226.029 27.3808 225.877C27.7115 225.725 28.0526 225.606 28.4092 225.521C28.7659 225.437 29.1219 225.389 29.4883 225.374C29.8547 225.36 30.2145 225.386 30.5744 225.445C30.9342 225.503 31.2891 225.592 31.6271 225.721C31.9702 225.85 32.298 226.009 32.6045 226.201C32.9162 226.394 33.2023 226.614 33.4732 226.864C33.7389 227.113 33.9799 227.384 34.191 227.677C34.4064 227.976 34.5876 228.29 34.7398 228.621C34.8912 228.956 35.01 229.297 35.0895 229.653C35.1742 230.01 35.2212 230.371 35.2357 230.738C35.251 231.099 35.2287 231.465 35.1704 231.824Z" fill="#3E5FBA"/>
</g>
<path d="M31.3015 141.111C31.1982 141.749 30.9765 142.336 30.6399 142.883C30.3033 143.43 29.8755 143.888 29.3549 144.268C28.8352 144.643 28.2652 144.904 27.64 145.05C27.0199 145.198 26.3881 145.222 25.7557 145.12C25.1233 145.017 24.5366 144.796 23.9897 144.459C23.4479 144.123 22.9844 143.695 22.6096 143.175C22.2356 142.65 21.9744 142.08 21.8278 141.455C21.6811 140.829 21.656 140.203 21.7593 139.565C21.8618 138.933 22.0843 138.341 22.4201 137.799C22.7567 137.252 23.1853 136.789 23.705 136.414C24.2248 136.039 24.7999 135.779 25.42 135.631C26.0461 135.48 26.6719 135.46 27.3043 135.562C27.9367 135.665 28.5293 135.882 29.0703 136.223C29.6173 136.56 30.0756 136.987 30.4504 137.507C30.8252 138.027 31.0855 138.602 31.2322 139.227C31.3797 139.847 31.404 140.479 31.3015 141.111Z" fill="#3E5FBA"/>
<path d="M69.0199 188.862C68.9508 189.288 68.8405 189.709 68.6856 190.111C68.5351 190.519 68.3459 190.905 68.1172 191.274C67.8937 191.645 67.6323 191.987 67.3384 192.304C67.0392 192.619 66.7186 192.905 66.3661 193.159C66.0188 193.414 65.6464 193.628 65.2533 193.807C64.8603 193.986 64.4525 194.126 64.0299 194.226C63.6125 194.328 63.1864 194.385 62.7515 194.399C62.3209 194.419 61.8875 194.391 61.4607 194.322C61.034 194.253 60.6191 194.143 60.2168 193.988C59.8086 193.838 59.4224 193.649 59.0583 193.421C58.6891 193.192 58.3463 192.931 58.0298 192.637C57.7134 192.343 57.4277 192.022 57.1786 191.671C56.9244 191.318 56.7104 190.946 56.5263 190.552C56.3472 190.159 56.2075 189.751 56.1123 189.329C56.0119 188.907 55.9543 188.481 55.9404 188.046C55.9205 187.615 55.9485 187.182 56.0176 186.755C56.0868 186.328 56.1962 185.913 56.3519 185.506C56.5025 185.098 56.6917 184.711 56.9204 184.342C57.1431 183.977 57.4044 183.635 57.6992 183.313C57.9983 182.997 58.319 182.712 58.6706 182.463C59.018 182.208 59.3912 181.988 59.7842 181.809C60.1773 181.63 60.5851 181.491 61.0076 181.39C61.425 181.289 61.8512 181.231 62.2861 181.218C62.7159 181.203 63.1441 181.23 63.5708 181.299C63.9976 181.368 64.4176 181.478 64.8207 181.628C65.229 181.779 65.6152 181.968 65.9793 182.196C66.3485 182.424 66.6913 182.686 67.0077 182.98C67.3242 183.274 67.609 183.6 67.8581 183.951C68.1131 184.299 68.3271 184.671 68.5113 185.065C68.6895 185.463 68.8292 185.871 68.9253 186.287C69.0256 186.71 69.0832 187.136 69.0972 187.571C69.1163 188.007 69.0891 188.435 69.0199 188.862Z" fill="#3E5FBA"/>
<path d="M88.2912 201.312C88.2338 201.667 88.1411 202.011 88.0176 202.349C87.889 202.687 87.732 203.005 87.5451 203.312C87.3589 203.615 87.1384 203.901 86.8956 204.162C86.6527 204.423 86.3875 204.66 86.0948 204.871C85.802 205.082 85.4988 205.26 85.169 205.407C84.8435 205.56 84.5083 205.675 84.1576 205.755C83.8112 205.841 83.4604 205.89 83.0999 205.9C82.7446 205.911 82.3892 205.891 82.0345 205.833C81.6797 205.776 81.3359 205.683 81.0023 205.56C80.6635 205.437 80.346 205.28 80.0394 205.088C79.7372 204.902 79.4502 204.686 79.1897 204.438C78.9283 204.195 78.6916 203.93 78.4857 203.638C78.2746 203.346 78.0976 203.037 77.9497 202.713C77.7967 202.387 77.683 202.047 77.6018 201.701C77.5163 201.35 77.4728 201 77.4575 200.638C77.4473 200.278 77.4679 199.922 77.5254 199.568C77.5821 199.218 77.6755 198.869 77.7982 198.536C77.9268 198.198 78.0786 197.879 78.2708 197.573C78.4577 197.265 78.6723 196.984 78.9202 196.723C79.1639 196.456 79.4292 196.22 79.7211 196.014C80.0087 195.802 80.317 195.625 80.6425 195.472C80.9672 195.324 81.3075 195.21 81.6539 195.124C82.0046 195.044 82.3554 194.995 82.7159 194.985C83.072 194.969 83.4266 194.994 83.7814 195.052C84.1361 195.109 84.4807 195.197 84.8135 195.325C85.1523 195.448 85.4698 195.605 85.7721 195.791C86.0786 195.983 86.3604 196.198 86.6218 196.441C86.8875 196.69 87.1191 196.954 87.3302 197.247C87.5421 197.534 87.719 197.843 87.8661 198.172C88.014 198.497 88.1336 198.833 88.214 199.184C88.2944 199.535 88.343 199.885 88.3584 200.247C88.3694 200.602 88.3479 200.963 88.2912 201.312Z" fill="#3E5FBA"/>
<path d="M90.2911 145.012C90.2019 145.562 90.0614 146.104 89.8651 146.631C89.6688 147.159 89.4237 147.662 89.1304 148.137C88.8312 148.616 88.4958 149.058 88.1123 149.471C87.7289 149.883 87.3101 150.254 86.8561 150.581C86.402 150.908 85.9187 151.189 85.4111 151.423C84.8984 151.657 84.3726 151.841 83.8244 151.968C83.2812 152.096 82.7258 152.17 82.1677 152.196C81.6052 152.215 81.0519 152.178 80.4966 152.088C79.9414 151.998 79.4047 151.859 78.8773 151.663C78.3557 151.462 77.852 151.217 77.3772 150.923C76.8972 150.629 76.4564 150.289 76.0437 149.905C75.6361 149.523 75.266 149.104 74.9386 148.65C74.6112 148.196 74.3307 147.713 74.0972 147.2C73.8637 146.687 73.6849 146.162 73.5575 145.614C73.424 145.07 73.3504 144.515 73.3307 143.952C73.3111 143.39 73.3488 142.831 73.4379 142.281C73.5279 141.726 73.6685 141.184 73.8647 140.657C74.061 140.129 74.3054 139.631 74.6046 139.151C74.8987 138.671 75.2341 138.23 75.6175 137.817C76.001 137.404 76.4197 137.034 76.8738 136.707C77.3278 136.379 77.8112 136.099 78.3187 135.865C78.8314 135.631 79.3572 135.447 79.9055 135.32C80.4486 135.191 81.004 135.118 81.5613 135.097C82.1238 135.078 82.6779 135.109 83.2332 135.199C83.7885 135.289 84.3243 135.434 84.8518 135.63C85.3741 135.826 85.8778 136.071 86.3527 136.364C86.8326 136.658 87.2734 136.999 87.6862 137.382C88.0937 137.765 88.4638 138.184 88.7912 138.638C89.1187 139.092 89.3991 139.575 89.6326 140.088C89.8661 140.601 90.0449 141.126 90.1775 141.675C90.305 142.223 90.3794 142.773 90.3991 143.336C90.4188 143.898 90.381 144.457 90.2911 145.012Z" fill="#3E5FBA"/>
<path d="M128.42 170.818C128.309 171.507 128.073 172.15 127.708 172.74C127.342 173.335 126.876 173.834 126.309 174.244C125.747 174.649 125.126 174.933 124.451 175.093C123.77 175.257 123.091 175.279 122.402 175.167C121.719 175.056 121.076 174.82 120.487 174.451C119.892 174.085 119.393 173.619 118.988 173.057C118.578 172.49 118.299 171.869 118.14 171.189C117.975 170.514 117.954 169.83 118.066 169.141C118.177 168.452 118.412 167.814 118.783 167.22C119.149 166.625 119.61 166.125 120.177 165.716C120.739 165.311 121.36 165.026 122.04 164.867C122.715 164.707 123.4 164.681 124.084 164.792C124.772 164.904 125.409 165.144 126.004 165.509C126.594 165.874 127.093 166.34 127.498 166.902C127.908 167.469 128.192 168.091 128.351 168.771C128.51 169.451 128.532 170.13 128.42 170.818Z" fill="#3E5FBA"/>
<path d="M147.972 131.855C147.91 132.236 147.814 132.6 147.677 132.958C147.545 133.316 147.379 133.659 147.178 133.985C146.978 134.311 146.744 134.611 146.488 134.891C146.226 135.171 145.942 135.426 145.632 135.65C145.321 135.874 144.995 136.064 144.647 136.224C144.299 136.384 143.937 136.504 143.569 136.592C143.196 136.68 142.819 136.729 142.436 136.746C142.059 136.759 141.678 136.734 141.303 136.674C140.922 136.612 140.558 136.516 140.199 136.384C139.842 136.247 139.499 136.081 139.178 135.881C138.852 135.68 138.551 135.452 138.272 135.191C137.992 134.929 137.743 134.646 137.519 134.335C137.295 134.024 137.106 133.693 136.946 133.345C136.786 132.998 136.664 132.64 136.577 132.267C136.49 131.894 136.44 131.517 136.423 131.134C136.411 130.752 136.435 130.376 136.496 129.996C136.557 129.621 136.654 129.251 136.786 128.893C136.923 128.535 137.089 128.193 137.29 127.866C137.491 127.54 137.719 127.239 137.98 126.96C138.242 126.68 138.526 126.426 138.836 126.207C139.146 125.983 139.473 125.788 139.82 125.633C140.168 125.473 140.526 125.346 140.899 125.259C141.267 125.171 141.644 125.121 142.026 125.109C142.409 125.092 142.785 125.116 143.165 125.178C143.541 125.239 143.91 125.335 144.263 125.472C144.621 125.604 144.964 125.77 145.29 125.97C145.611 126.17 145.916 126.404 146.196 126.666C146.476 126.922 146.725 127.211 146.949 127.521C147.173 127.827 147.363 128.158 147.522 128.506C147.677 128.853 147.804 129.211 147.891 129.584C147.979 129.957 148.028 130.334 148.04 130.716C148.057 131.099 148.033 131.48 147.972 131.855Z" fill="#3E5FBA"/>
<path d="M182.254 122.848C182.194 123.218 182.098 123.582 181.966 123.941C181.83 124.293 181.665 124.631 181.469 124.958C181.269 125.279 181.041 125.58 180.78 125.854C180.524 126.134 180.241 126.384 179.936 126.604C179.631 126.828 179.304 127.018 178.957 127.173C178.616 127.329 178.258 127.45 177.89 127.538C177.523 127.627 177.15 127.677 176.774 127.69C176.391 127.707 176.02 127.684 175.645 127.623C175.27 127.562 174.905 127.466 174.553 127.33C174.199 127.199 173.862 127.033 173.541 126.834C173.22 126.634 172.919 126.406 172.644 126.15C172.364 125.894 172.114 125.61 171.895 125.301C171.675 124.996 171.486 124.67 171.326 124.322C171.17 123.98 171.048 123.623 170.96 123.255C170.873 122.882 170.823 122.51 170.81 122.133C170.798 121.751 170.822 121.375 170.882 121.005C170.942 120.63 171.038 120.265 171.17 119.907C171.302 119.554 171.467 119.216 171.667 118.895C171.867 118.569 172.095 118.273 172.351 117.993C172.612 117.719 172.895 117.469 173.201 117.244C173.505 117.025 173.831 116.835 174.179 116.675C174.521 116.519 174.878 116.398 175.246 116.309C175.614 116.221 175.986 116.171 176.363 116.158C176.74 116.145 177.116 116.169 177.491 116.23C177.866 116.291 178.225 116.386 178.584 116.518C178.937 116.649 179.275 116.814 179.596 117.014C179.917 117.214 180.218 117.442 180.493 117.698C180.772 117.959 181.022 118.242 181.242 118.547C181.46 118.857 181.65 119.183 181.806 119.525C181.966 119.873 182.088 120.225 182.176 120.598C182.259 120.965 182.309 121.337 182.327 121.715C182.339 122.097 182.315 122.473 182.254 122.848Z" fill="#3E5FBA"/>
<path d="M194.953 162.915C194.853 163.532 194.698 164.129 194.481 164.717C194.26 165.298 193.991 165.856 193.662 166.388C193.333 166.916 192.958 167.409 192.535 167.868C192.114 168.322 191.646 168.732 191.144 169.099C190.637 169.46 190.105 169.775 189.536 170.031C188.971 170.293 188.385 170.493 187.781 170.638C187.172 170.782 186.563 170.863 185.942 170.884C185.321 170.909 184.7 170.867 184.088 170.768C183.471 170.668 182.873 170.513 182.292 170.292C181.709 170.076 181.152 169.807 180.624 169.478C180.097 169.15 179.604 168.775 179.146 168.347C178.692 167.925 178.282 167.458 177.92 166.956C177.554 166.448 177.245 165.913 176.988 165.349C176.727 164.779 176.527 164.192 176.387 163.589C176.243 162.98 176.158 162.365 176.137 161.744C176.117 161.119 176.154 160.502 176.254 159.885C176.353 159.273 176.514 158.671 176.729 158.089C176.946 157.501 177.22 156.95 177.549 156.417C177.873 155.884 178.248 155.391 178.675 154.938C179.097 154.484 179.56 154.068 180.067 153.707C180.57 153.34 181.105 153.031 181.67 152.769C182.239 152.513 182.825 152.313 183.429 152.168C184.033 152.023 184.648 151.943 185.269 151.917C185.89 151.896 186.507 151.933 187.123 152.033C187.735 152.132 188.337 152.293 188.919 152.509C189.501 152.729 190.054 152.998 190.586 153.327C191.113 153.655 191.606 154.031 192.06 154.453C192.519 154.88 192.924 155.342 193.29 155.85C193.652 156.351 193.965 156.893 194.222 157.457C194.479 158.021 194.68 158.607 194.824 159.216C194.968 159.825 195.048 160.435 195.073 161.061C195.094 161.682 195.052 162.303 194.953 162.915Z" fill="#3E5FBA"/>
<path d="M127.531 86.3953C127.426 87.0431 127.202 87.6452 126.858 88.2016C126.514 88.7632 126.074 89.2301 125.542 89.6135C125.01 90.0021 124.429 90.2667 123.792 90.4169C123.155 90.5722 122.513 90.5948 121.865 90.4898C121.218 90.3848 120.615 90.1606 120.06 89.8121C119.503 89.4687 119.031 89.0333 118.653 88.4972C118.27 87.9655 118 87.3836 117.851 86.7421C117.7 86.1057 117.678 85.4637 117.783 84.8159C117.888 84.1681 118.112 83.566 118.456 83.0044C118.8 82.448 119.24 81.9759 119.772 81.5925C120.298 81.2082 120.886 80.9393 121.522 80.7891C122.158 80.639 122.8 80.6164 123.448 80.7214C124.096 80.8263 124.698 81.0505 125.254 81.3939C125.811 81.7374 126.278 82.1771 126.661 82.7088C127.045 83.2405 127.314 83.8275 127.464 84.4639C127.613 85.1054 127.636 85.7475 127.531 86.3953Z" fill="#3E5FBA"/>
<path d="M219.239 81.1207C219.145 81.7016 218.942 82.2386 218.633 82.7426C218.326 83.2414 217.935 83.6636 217.457 84.0083C216.985 84.3486 216.461 84.5907 215.89 84.7252C215.32 84.8596 214.741 84.8819 214.165 84.7886C213.584 84.6945 213.047 84.4914 212.548 84.1837C212.044 83.8752 211.628 83.4806 211.283 83.0078C210.938 82.5298 210.701 82.006 210.567 81.4355C210.433 80.8599 210.41 80.2863 210.504 79.7053C210.598 79.1243 210.802 78.5823 211.11 78.0834C211.417 77.5845 211.808 77.1623 212.286 76.8177C212.764 76.473 213.282 76.2352 213.858 76.1016C214.429 75.962 215.002 75.944 215.583 76.0382C216.159 76.1315 216.702 76.3302 217.2 76.6431C217.699 76.9508 218.121 77.3411 218.46 77.8182C218.805 78.2961 219.042 78.8199 219.176 79.3904C219.311 79.961 219.333 80.5397 219.239 81.1207Z" fill="#3E5FBA"/>
<path d="M210.667 143.006C210.582 143.53 210.402 144.023 210.123 144.474C209.843 144.93 209.486 145.31 209.055 145.626C208.625 145.936 208.147 146.154 207.631 146.276C207.115 146.398 206.59 146.418 206.065 146.333C205.541 146.249 205.054 146.064 204.598 145.784C204.147 145.506 203.767 145.149 203.451 144.718C203.142 144.282 202.928 143.81 202.802 143.288C202.68 142.772 202.664 142.247 202.749 141.723C202.834 141.199 203.015 140.705 203.293 140.255C203.578 139.8 203.93 139.419 204.361 139.103C204.796 138.794 205.27 138.575 205.786 138.453C206.306 138.332 206.827 138.31 207.351 138.395C207.876 138.48 208.368 138.666 208.819 138.944C209.27 139.223 209.655 139.581 209.965 140.011C210.274 140.447 210.493 140.92 210.615 141.441C210.737 141.957 210.752 142.481 210.667 143.006Z" fill="#3E5FBA"/>
<path d="M248.398 141.496C248.301 142.097 248.094 142.655 247.773 143.173C247.457 143.691 247.049 144.126 246.558 144.485C246.063 144.837 245.521 145.087 244.934 145.224C244.342 145.366 243.747 145.385 243.146 145.288C242.55 145.191 241.992 144.985 241.474 144.664C240.956 144.347 240.521 143.939 240.167 143.449C239.81 142.953 239.565 142.413 239.424 141.82C239.287 141.228 239.262 140.633 239.36 140.031C239.457 139.43 239.669 138.873 239.985 138.355C240.306 137.837 240.709 137.401 241.205 137.043C241.695 136.69 242.237 136.44 242.83 136.299C243.422 136.157 244.017 136.138 244.613 136.234C245.214 136.332 245.772 136.538 246.29 136.859C246.802 137.18 247.237 137.588 247.596 138.079C247.948 138.574 248.198 139.116 248.334 139.707C248.476 140.3 248.496 140.894 248.398 141.496Z" fill="#3E5FBA"/>
<path d="M244.417 205.247C244.361 205.597 244.268 205.941 244.145 206.274C244.018 206.607 243.861 206.924 243.674 207.232C243.487 207.534 243.273 207.816 243.03 208.077C242.787 208.339 242.523 208.57 242.235 208.782C241.943 208.988 241.64 209.166 241.315 209.319C240.99 209.467 240.655 209.581 240.309 209.663C239.964 209.744 239.613 209.792 239.258 209.803C238.901 209.82 238.547 209.794 238.197 209.737C237.848 209.681 237.503 209.593 237.17 209.465C236.837 209.343 236.519 209.186 236.217 208.999C235.915 208.813 235.633 208.599 235.371 208.356C235.111 208.108 234.874 207.843 234.667 207.556C234.461 207.264 234.284 206.961 234.136 206.636C233.988 206.311 233.873 205.976 233.787 205.63C233.707 205.279 233.663 204.929 233.647 204.573C233.636 204.218 233.657 203.862 233.713 203.513C233.771 203.158 233.863 202.814 233.986 202.481C234.114 202.148 234.266 201.829 234.452 201.527C234.644 201.221 234.858 200.939 235.101 200.677C235.344 200.416 235.608 200.184 235.896 199.973C236.183 199.766 236.491 199.589 236.816 199.441C237.141 199.293 237.476 199.179 237.822 199.092C238.168 199.011 238.518 198.962 238.874 198.951C239.229 198.94 239.584 198.961 239.934 199.018C240.284 199.074 240.627 199.167 240.961 199.29C241.295 199.412 241.612 199.569 241.915 199.755C242.216 199.947 242.498 200.161 242.759 200.404C243.021 200.647 243.252 200.911 243.464 201.199C243.67 201.491 243.848 201.794 243.996 202.119C244.143 202.443 244.258 202.778 244.338 203.129C244.42 203.475 244.468 203.826 244.484 204.182C244.495 204.537 244.475 204.892 244.417 205.247Z" fill="#3E5FBA"/>
<path d="M268.848 171.121C268.787 171.497 268.691 171.861 268.56 172.214C268.428 172.573 268.263 172.91 268.063 173.231C267.863 173.552 267.635 173.853 267.379 174.133C267.123 174.409 266.84 174.658 266.529 174.882C266.224 175.102 265.898 175.292 265.555 175.453C265.209 175.607 264.856 175.73 264.489 175.818C264.116 175.905 263.743 175.956 263.367 175.968C262.99 175.981 262.614 175.957 262.239 175.896C261.868 175.836 261.504 175.741 261.151 175.609C260.792 175.477 260.455 175.312 260.134 175.112C259.813 174.912 259.512 174.684 259.237 174.429C258.963 174.168 258.713 173.885 258.488 173.579C258.269 173.269 258.079 172.943 257.924 172.601C257.764 172.254 257.642 171.896 257.559 171.529C257.471 171.161 257.421 170.789 257.409 170.407C257.391 170.03 257.415 169.654 257.475 169.279C257.536 168.903 257.632 168.539 257.768 168.186C257.9 167.833 258.066 167.491 258.266 167.169C258.46 166.848 258.688 166.547 258.949 166.272C259.206 165.992 259.489 165.743 259.793 165.523C260.104 165.299 260.43 165.109 260.772 164.953C261.115 164.792 261.472 164.671 261.839 164.588C262.207 164.5 262.579 164.449 262.962 164.432C263.339 164.419 263.715 164.443 264.085 164.503C264.46 164.564 264.824 164.66 265.178 164.791C265.53 164.928 265.868 165.093 266.194 165.294C266.516 165.488 266.811 165.716 267.091 165.977C267.366 166.233 267.616 166.516 267.834 166.826C268.059 167.131 268.249 167.457 268.404 167.804C268.56 168.146 268.681 168.504 268.769 168.871C268.857 169.239 268.907 169.617 268.92 169.993C268.933 170.37 268.909 170.746 268.848 171.121Z" fill="#3E5FBA"/>
<path d="M274.092 203.091C273.983 203.765 273.745 204.391 273.387 204.972C273.029 205.552 272.575 206.043 272.019 206.444C271.469 206.845 270.858 207.126 270.195 207.282C269.531 207.439 268.862 207.462 268.189 207.353C267.515 207.244 266.888 207.01 266.308 206.653C265.727 206.295 265.237 205.835 264.842 205.281C264.441 204.725 264.165 204.116 264.004 203.451C263.848 202.787 263.824 202.119 263.933 201.445C264.043 200.767 264.277 200.14 264.634 199.559C264.997 198.98 265.452 198.489 266.007 198.088C266.558 197.687 267.167 197.411 267.832 197.249C268.495 197.093 269.164 197.069 269.837 197.179C270.511 197.288 271.138 197.521 271.718 197.879C272.298 198.242 272.789 198.696 273.184 199.251C273.585 199.807 273.861 200.416 274.017 201.08C274.174 201.743 274.202 202.413 274.092 203.091Z" fill="#3E5FBA"/>
<path d="M316.913 162.622C316.845 163.038 316.738 163.438 316.59 163.831C316.447 164.224 316.26 164.6 316.043 164.961C315.822 165.315 315.567 165.649 315.28 165.956C314.998 166.264 314.684 166.54 314.344 166.785C314.003 167.031 313.643 167.236 313.266 167.413C312.884 167.588 312.487 167.725 312.081 167.822C311.676 167.915 311.26 167.974 310.841 167.985C310.422 168.002 310.009 167.977 309.592 167.91C309.181 167.843 308.776 167.735 308.384 167.587C307.99 167.444 307.619 167.258 307.264 167.042C306.904 166.82 306.576 166.566 306.269 166.279C305.962 165.992 305.685 165.683 305.439 165.343C305.194 165.002 304.988 164.642 304.813 164.26C304.637 163.878 304.506 163.482 304.408 163.076C304.311 162.664 304.257 162.249 304.241 161.83C304.224 161.41 304.254 160.998 304.322 160.582C304.389 160.165 304.491 159.765 304.639 159.372C304.787 158.979 304.969 158.603 305.19 158.248C305.412 157.888 305.662 157.554 305.949 157.247C306.236 156.94 306.545 156.663 306.885 156.417C307.225 156.177 307.586 155.966 307.968 155.791C308.35 155.615 308.742 155.478 309.152 155.387C309.559 155.289 309.969 155.229 310.388 155.217C310.807 155.201 311.225 155.226 311.637 155.293C312.053 155.361 312.453 155.468 312.845 155.616C313.239 155.759 313.615 155.946 313.97 156.167C314.325 156.383 314.658 156.637 314.965 156.925C315.267 157.211 315.544 157.525 315.79 157.86C316.036 158.201 316.246 158.562 316.416 158.943C316.592 159.325 316.728 159.722 316.825 160.133C316.918 160.539 316.977 160.955 316.988 161.373C317.005 161.793 316.98 162.205 316.913 162.622Z" fill="#3E5FBA"/>
<path d="M293.487 138.788C293.408 139.276 293.24 139.729 292.977 140.145C292.72 140.563 292.392 140.921 291.992 141.21C291.593 141.493 291.154 141.697 290.676 141.809C290.199 141.922 289.715 141.944 289.227 141.865C288.744 141.786 288.292 141.613 287.874 141.355C287.452 141.097 287.099 140.765 286.815 140.371C286.526 139.971 286.324 139.526 286.211 139.049C286.099 138.572 286.082 138.089 286.161 137.601C286.24 137.112 286.409 136.659 286.666 136.242C286.925 135.82 287.256 135.467 287.656 135.178C288.051 134.889 288.49 134.691 288.972 134.579C289.45 134.461 289.933 134.445 290.416 134.523C290.905 134.602 291.358 134.77 291.774 135.033C292.192 135.291 292.545 135.617 292.834 136.017C293.122 136.417 293.32 136.856 293.432 137.338C293.55 137.816 293.567 138.299 293.487 138.788Z" fill="#3E5FBA"/>
<path d="M374.847 88.1799C374.779 88.6015 374.67 89.0113 374.52 89.4144C374.371 89.8123 374.188 90.1942 373.96 90.5583C373.738 90.9232 373.482 91.2617 373.189 91.573C372.901 91.8851 372.581 92.1657 372.235 92.4156C371.888 92.6655 371.521 92.8803 371.133 93.0602C370.746 93.2349 370.343 93.3754 369.932 93.4723C369.516 93.5684 369.094 93.6268 368.67 93.6424C368.245 93.658 367.822 93.6317 367.401 93.5634C366.979 93.4951 366.569 93.3865 366.171 93.2375C365.768 93.0878 365.387 92.8994 365.027 92.6776C364.662 92.4549 364.325 92.1944 364.013 91.9064C363.701 91.6133 363.421 91.2934 363.171 90.9469C362.926 90.6012 362.711 90.234 362.531 89.8461C362.357 89.459 362.221 89.0572 362.12 88.6398C362.024 88.2232 361.966 87.8022 361.95 87.3776C361.935 86.9478 361.962 86.5247 362.03 86.1031C362.098 85.6815 362.207 85.2717 362.356 84.8738C362.505 84.4706 362.694 84.0896 362.916 83.7247C363.144 83.3606 363.4 83.0221 363.688 82.71C363.981 82.3987 364.301 82.1181 364.642 81.8674C364.988 81.6175 365.356 81.4027 365.743 81.228C366.131 81.0481 366.533 80.9127 366.95 80.8115C367.361 80.7146 367.782 80.6562 368.212 80.6414C368.637 80.6258 369.06 80.6521 369.481 80.7204C369.903 80.7888 370.313 80.8974 370.711 81.0463C371.109 81.1952 371.49 81.3835 371.855 81.6062C372.214 81.8332 372.552 82.0886 372.863 82.3817C373.176 82.6697 373.456 82.9896 373.706 83.3361C373.956 83.6826 374.171 84.0498 374.346 84.4369C374.525 84.8248 374.661 85.2267 374.757 85.6432C374.858 86.0606 374.911 86.4808 374.926 86.9106C374.942 87.3352 374.915 87.7583 374.847 88.1799Z" fill="#3E5FBA"/>
<path d="M391.137 126.276C391.027 126.955 390.792 127.592 390.428 128.177C390.064 128.761 389.604 129.257 389.047 129.662C388.486 130.067 387.87 130.348 387.201 130.508C386.532 130.664 385.857 130.691 385.179 130.581C384.495 130.471 383.864 130.231 383.278 129.872C382.693 129.509 382.198 129.049 381.798 128.488C381.393 127.926 381.113 127.311 380.952 126.641C380.797 125.972 380.77 125.293 380.88 124.614C380.991 123.93 381.23 123.299 381.59 122.708C381.953 122.123 382.414 121.628 382.975 121.223C383.532 120.817 384.147 120.537 384.816 120.382C385.485 120.221 386.16 120.193 386.844 120.304C387.523 120.414 388.154 120.653 388.739 121.017C389.324 121.376 389.819 121.836 390.224 122.398C390.624 122.958 390.904 123.574 391.065 124.243C391.225 124.918 391.247 125.592 391.137 126.276Z" fill="#3E5FBA"/>
<path d="M456.738 165.34C456.619 166.08 456.427 166.804 456.166 167.506C455.904 168.212 455.574 168.882 455.18 169.52C454.786 170.163 454.336 170.755 453.825 171.305C453.314 171.855 452.753 172.35 452.144 172.79C451.535 173.229 450.888 173.604 450.21 173.917C449.526 174.228 448.822 174.473 448.092 174.645C447.362 174.817 446.623 174.918 445.875 174.945C445.121 174.971 444.38 174.924 443.639 174.804C442.899 174.684 442.176 174.493 441.474 174.232C440.772 173.97 440.103 173.64 439.465 173.247C438.827 172.853 438.236 172.399 437.686 171.887C437.135 171.376 436.64 170.816 436.206 170.207C435.767 169.598 435.391 168.951 435.08 168.268C434.769 167.584 434.529 166.881 434.353 166.145C434.181 165.415 434.084 164.677 434.058 163.923C434.032 163.175 434.079 162.428 434.199 161.688C434.319 160.948 434.51 160.224 434.772 159.517C435.034 158.816 435.36 158.14 435.753 157.502C436.152 156.865 436.602 156.268 437.113 155.718C437.624 155.173 438.184 154.678 438.794 154.238C439.398 153.798 440.044 153.423 440.729 153.106C441.412 152.795 442.116 152.555 442.846 152.378C443.576 152.206 444.314 152.11 445.064 152.078C445.812 152.052 446.559 152.099 447.299 152.219C448.039 152.339 448.758 152.529 449.464 152.791C450.165 153.058 450.835 153.383 451.473 153.776C452.111 154.175 452.703 154.624 453.253 155.136C453.797 155.651 454.292 156.211 454.731 156.821C455.171 157.43 455.546 158.077 455.858 158.755C456.17 159.439 456.408 160.148 456.58 160.877C456.752 161.607 456.853 162.351 456.88 163.099C456.906 163.853 456.858 164.6 456.738 165.34Z" fill="#3E5FBA"/>
<path d="M468.18 225.921C468.118 226.307 468.02 226.681 467.887 227.05C467.749 227.413 467.576 227.76 467.375 228.091C467.168 228.422 466.933 228.732 466.671 229.017C466.403 229.3 466.113 229.559 465.803 229.783C465.486 230.012 465.148 230.21 464.795 230.369C464.441 230.534 464.078 230.659 463.7 230.746C463.321 230.837 462.938 230.886 462.551 230.903C462.163 230.919 461.777 230.893 461.391 230.831C461.01 230.769 460.636 230.671 460.268 230.533C459.905 230.395 459.558 230.228 459.227 230.021C458.896 229.82 458.59 229.586 458.307 229.318C458.022 229.056 457.764 228.76 457.541 228.445C457.312 228.133 457.118 227.796 456.954 227.442C456.795 227.089 456.67 226.721 456.578 226.342C456.492 225.964 456.438 225.58 456.427 225.193C456.411 224.8 456.437 224.414 456.499 224.029C456.561 223.648 456.659 223.273 456.797 222.905C456.93 222.542 457.102 222.195 457.304 221.864C457.51 221.533 457.745 221.223 458.008 220.938C458.275 220.655 458.565 220.396 458.882 220.167C459.193 219.943 459.531 219.745 459.884 219.586C460.237 219.421 460.601 219.295 460.979 219.209C461.358 219.117 461.741 219.063 462.128 219.052C462.521 219.037 462.907 219.062 463.288 219.124C463.673 219.187 464.048 219.284 464.411 219.422C464.774 219.555 465.121 219.727 465.452 219.934C465.783 220.135 466.088 220.369 466.372 220.637C466.657 220.899 466.915 221.194 467.144 221.506C467.367 221.822 467.56 222.159 467.725 222.513C467.884 222.866 468.009 223.234 468.1 223.613C468.187 223.991 468.241 224.375 468.257 224.762C468.268 225.154 468.242 225.541 468.18 225.921Z" fill="#3E5FBA"/>
<path d="M549.279 86.8863C549.196 87.3953 549.018 87.873 548.746 88.3144C548.468 88.76 548.123 89.1315 547.705 89.433C547.281 89.7389 546.819 89.9491 546.315 90.0678C545.809 90.1917 545.305 90.2102 544.791 90.1269C544.277 90.0436 543.804 89.8668 543.364 89.5896C542.922 89.3176 542.551 88.9725 542.245 88.5483C541.943 88.1301 541.728 87.6679 541.61 87.1581C541.492 86.6534 541.474 86.144 541.556 85.6351C541.64 85.1209 541.817 84.6432 542.089 84.2019C542.361 83.7605 542.712 83.3847 543.131 83.0832C543.555 82.7773 544.016 82.5671 544.521 82.4484C545.026 82.3245 545.531 82.306 546.045 82.3893C546.559 82.4726 547.031 82.6494 547.472 82.9266C547.913 83.1986 548.285 83.5437 548.591 83.9679C548.892 84.3861 549.102 84.8526 549.225 85.3581C549.344 85.8628 549.362 86.3722 549.279 86.8863Z" fill="#3E5FBA"/>
<path d="M562.066 101.173C561.954 101.862 561.714 102.498 561.349 103.093C560.983 103.688 560.517 104.188 559.955 104.598C559.388 105.002 558.767 105.287 558.092 105.446C557.412 105.605 556.732 105.632 556.043 105.521C555.359 105.41 554.718 105.169 554.128 104.804C553.538 104.439 553.038 103.973 552.628 103.411C552.224 102.844 551.94 102.223 551.781 101.543C551.622 100.863 551.595 100.183 551.706 99.4942C551.818 98.8053 552.059 98.1637 552.424 97.5738C552.789 96.9788 553.255 96.4792 553.818 96.0691C554.385 95.6649 555.006 95.3804 555.681 95.2207C556.356 95.0558 557.04 95.0347 557.724 95.1455C558.413 95.2571 559.05 95.4923 559.645 95.863C560.234 96.2276 560.734 96.6937 561.144 97.2562C561.548 97.8229 561.833 98.4441 561.992 99.1241C562.151 99.799 562.178 100.484 562.066 101.173Z" fill="#3E5FBA"/>
<path d="M573.131 161.015C572.954 162.105 572.677 163.168 572.287 164.202C571.904 165.232 571.422 166.22 570.843 167.16C570.264 168.095 569.6 168.969 568.852 169.777C568.098 170.588 567.278 171.316 566.383 171.957C565.492 172.604 564.542 173.157 563.54 173.612C562.542 174.073 561.503 174.427 560.432 174.686C559.362 174.94 558.273 175.085 557.174 175.124C556.076 175.162 554.979 175.095 553.894 174.919C552.804 174.743 551.747 174.46 550.717 174.077C549.682 173.693 548.699 173.212 547.764 172.633C546.824 172.048 545.956 171.385 545.149 170.632C544.342 169.884 543.621 169.06 542.974 168.164C542.332 167.274 541.779 166.324 541.325 165.316C540.865 164.313 540.511 163.275 540.257 162.205C540.004 161.129 539.859 160.04 539.82 158.942C539.783 157.838 539.85 156.741 540.026 155.651C540.202 154.566 540.485 153.504 540.869 152.469C541.253 151.433 541.734 150.451 542.314 149.511C542.894 148.57 543.558 147.697 544.311 146.89C545.059 146.083 545.884 145.356 546.775 144.709C547.67 144.068 548.615 143.514 549.618 143.054C550.62 142.599 551.654 142.239 552.73 141.986C553.8 141.732 554.884 141.586 555.987 141.548C557.087 141.505 558.178 141.576 559.268 141.753C560.353 141.928 561.416 142.206 562.445 142.595C563.475 142.978 564.463 143.46 565.398 144.039C566.333 144.618 567.206 145.287 568.008 146.034C568.815 146.787 569.541 147.612 570.183 148.502C570.829 149.398 571.377 150.347 571.837 151.35C572.292 152.353 572.646 153.391 572.899 154.466C573.153 155.542 573.299 156.626 573.336 157.729C573.379 158.834 573.307 159.93 573.131 161.015Z" fill="#3E5FBA"/>
<path d="M612.348 194.357C612.261 194.897 612.074 195.399 611.787 195.865C611.501 196.33 611.137 196.72 610.695 197.038C610.252 197.362 609.762 197.584 609.23 197.709C608.703 197.834 608.167 197.853 607.628 197.766C607.088 197.678 606.59 197.492 606.125 197.205C605.66 196.919 605.27 196.555 604.952 196.108C604.633 195.666 604.406 195.18 604.281 194.648C604.156 194.116 604.138 193.58 604.225 193.041C604.312 192.501 604.499 191.998 604.786 191.533C605.077 191.068 605.442 190.674 605.884 190.355C606.326 190.036 606.811 189.814 607.343 189.689C607.876 189.559 608.407 189.539 608.946 189.627C609.486 189.714 609.989 189.901 610.448 190.192C610.914 190.479 611.308 190.843 611.627 191.285C611.946 191.727 612.167 192.217 612.292 192.749C612.417 193.281 612.436 193.817 612.348 194.357Z" fill="#3E5FBA"/>
<path d="M720.856 230.499C720.769 231.039 720.582 231.542 720.29 232.006C720.004 232.472 719.64 232.861 719.198 233.18C718.755 233.504 718.27 233.726 717.738 233.851C717.206 233.976 716.67 233.995 716.135 233.908C715.596 233.821 715.093 233.634 714.628 233.347C714.167 233.062 713.773 232.697 713.455 232.25C713.136 231.808 712.914 231.323 712.789 230.791C712.664 230.259 712.645 229.723 712.733 229.183C712.82 228.643 713.007 228.141 713.294 227.675C713.58 227.21 713.945 226.815 714.387 226.497C714.829 226.178 715.319 225.956 715.846 225.831C716.378 225.701 716.914 225.682 717.454 225.769C717.989 225.856 718.491 226.043 718.956 226.335C719.421 226.621 719.811 226.985 720.13 227.427C720.449 227.869 720.67 228.359 720.795 228.891C720.925 229.424 720.943 229.96 720.856 230.499Z" fill="#3E5FBA"/>
<path d="M631.009 230.742C630.933 231.215 630.771 231.659 630.521 232.061C630.265 232.468 629.951 232.813 629.563 233.093C629.174 233.373 628.747 233.568 628.281 233.677C627.82 233.787 627.352 233.806 626.879 233.73C626.406 233.653 625.969 233.487 625.561 233.236C625.158 232.986 624.814 232.667 624.534 232.278C624.254 231.89 624.06 231.463 623.951 230.997C623.841 230.536 623.827 230.064 623.904 229.591C623.98 229.123 624.141 228.68 624.392 228.272C624.643 227.864 624.962 227.525 625.35 227.245C625.738 226.965 626.165 226.771 626.627 226.661C627.094 226.546 627.56 226.532 628.033 226.609C628.506 226.685 628.944 226.846 629.346 227.101C629.754 227.352 630.098 227.672 630.378 228.06C630.658 228.448 630.848 228.869 630.963 229.336C631.072 229.803 631.085 230.274 631.009 230.742Z" fill="#3E5FBA"/>
<path d="M676.27 259.485C676.194 259.958 676.028 260.396 675.777 260.804C675.526 261.211 675.207 261.555 674.818 261.835C674.43 262.115 674.008 262.311 673.542 262.42C673.076 262.529 672.608 262.548 672.14 262.473C671.667 262.396 671.23 262.23 670.822 261.979C670.414 261.729 670.075 261.41 669.795 261.021C669.515 260.633 669.321 260.206 669.212 259.74C669.102 259.274 669.083 258.806 669.16 258.333C669.237 257.86 669.402 257.423 669.653 257.015C669.904 256.607 670.223 256.263 670.611 255.988C670.999 255.708 671.421 255.513 671.888 255.398C672.355 255.289 672.821 255.275 673.294 255.352C673.762 255.428 674.2 255.588 674.608 255.839C675.015 256.095 675.354 256.414 675.634 256.802C675.915 257.185 676.109 257.613 676.219 258.079C676.328 258.545 676.347 259.012 676.27 259.485Z" fill="#3E5FBA"/>
<path d="M629.753 270.764C629.649 271.37 629.441 271.937 629.119 272.46C628.797 272.983 628.388 273.424 627.886 273.785C627.39 274.143 626.843 274.392 626.245 274.538C625.647 274.678 625.048 274.697 624.441 274.599C623.839 274.502 623.272 274.293 622.749 273.971C622.232 273.645 621.791 273.236 621.429 272.739C621.072 272.238 620.823 271.691 620.682 271.093C620.542 270.495 620.519 269.89 620.617 269.283C620.715 268.677 620.928 268.115 621.25 267.592C621.572 267.069 621.981 266.629 622.478 266.266C622.979 265.909 623.526 265.655 624.119 265.514C624.717 265.373 625.321 265.355 625.923 265.453C626.53 265.551 627.092 265.758 627.615 266.08C628.138 266.402 628.577 266.817 628.935 267.313C629.297 267.814 629.546 268.361 629.687 268.959C629.827 269.557 629.846 270.156 629.753 270.764Z" fill="#3E5FBA"/>
<path d="M695.616 301.903C695.518 302.51 695.31 303.077 694.982 303.599C694.66 304.122 694.251 304.563 693.755 304.92C693.259 305.283 692.712 305.532 692.114 305.673C691.516 305.813 690.916 305.837 690.309 305.739C689.703 305.641 689.141 305.428 688.618 305.106C688.095 304.784 687.655 304.375 687.298 303.874C686.94 303.378 686.686 302.83 686.546 302.232C686.405 301.635 686.387 301.03 686.485 300.423C686.583 299.817 686.792 299.249 687.114 298.726C687.436 298.203 687.85 297.764 688.346 297.406C688.843 297.043 689.389 296.794 689.987 296.654C690.585 296.513 691.185 296.489 691.792 296.587C692.399 296.686 692.96 296.898 693.483 297.22C694.006 297.542 694.447 297.951 694.803 298.452C695.161 298.948 695.41 299.495 695.551 300.093C695.696 300.692 695.714 301.296 695.616 301.903Z" fill="#3E5FBA"/>
<mask id="mask11_2319_1142" style="mask-type:luminance" maskUnits="userSpaceOnUse" x="768" y="230" width="10" height="13">
<path d="M770.102 230.707L777.999 231.987L776.292 242.516L768.395 241.236L770.102 230.707Z" fill="white"/>
</mask>
<g mask="url(#mask11_2319_1142)">
<path d="M779.591 237.696C779.492 238.303 779.284 238.87 778.962 239.393C778.64 239.916 778.226 240.356 777.73 240.713C777.233 241.076 776.686 241.325 776.088 241.465C775.491 241.606 774.89 241.63 774.284 241.532C773.677 241.434 773.115 241.221 772.592 240.899C772.07 240.577 771.629 240.168 771.273 239.667C770.915 239.171 770.666 238.624 770.525 238.026C770.38 237.427 770.361 236.823 770.46 236.216C770.558 235.61 770.765 235.047 771.093 234.525C771.416 233.997 771.825 233.557 772.32 233.199C772.817 232.836 773.364 232.587 773.962 232.447C774.56 232.306 775.16 232.282 775.767 232.38C776.373 232.479 776.935 232.691 777.458 233.013C777.981 233.335 778.421 233.744 778.778 234.245C779.136 234.741 779.39 235.289 779.529 235.892C779.67 236.49 779.689 237.089 779.591 237.696Z" fill="#3E5FBA"/>
</g>
<path d="M674.787 219.109C674.73 219.458 674.644 219.798 674.517 220.126C674.395 220.454 674.243 220.772 674.058 221.07C673.872 221.367 673.658 221.648 673.421 221.906C673.184 222.163 672.92 222.394 672.633 222.601C672.351 222.809 672.049 222.981 671.729 223.13C671.411 223.274 671.076 223.388 670.735 223.47C670.395 223.552 670.045 223.596 669.694 223.613C669.344 223.624 668.994 223.6 668.65 223.544C668.3 223.487 667.966 223.401 667.637 223.279C667.304 223.152 666.991 223.001 666.694 222.815C666.397 222.63 666.115 222.415 665.858 222.179C665.602 221.937 665.37 221.677 665.168 221.391C664.961 221.105 664.783 220.801 664.64 220.483C664.491 220.163 664.382 219.829 664.3 219.488C664.218 219.148 664.174 218.798 664.157 218.447C664.145 218.097 664.17 217.747 664.227 217.398C664.283 217.053 664.369 216.714 664.492 216.38C664.619 216.053 664.77 215.739 664.956 215.437C665.141 215.14 665.35 214.863 665.593 214.601C665.83 214.344 666.094 214.112 666.381 213.906C666.662 213.703 666.965 213.525 667.284 213.377C667.603 213.233 667.938 213.119 668.279 213.037C668.619 212.955 668.964 212.91 669.319 212.899C669.669 212.887 670.014 212.906 670.364 212.963C670.709 213.019 671.047 213.111 671.376 213.232C671.704 213.354 672.023 213.506 672.32 213.691C672.617 213.877 672.899 214.091 673.156 214.328C673.412 214.57 673.643 214.834 673.846 215.115C674.053 215.402 674.23 215.705 674.374 216.024C674.517 216.348 674.632 216.678 674.714 217.018C674.795 217.364 674.84 217.709 674.852 218.059C674.868 218.415 674.843 218.764 674.787 219.109Z" fill="#3E5FBA"/>
<path d="M773.652 200.654C773.489 201.657 773.231 202.633 772.876 203.583C772.522 204.534 772.079 205.443 771.543 206.306C771.013 207.17 770.398 207.973 769.707 208.716C769.017 209.458 768.26 210.127 767.441 210.723C766.616 211.317 765.748 211.825 764.825 212.246C763.902 212.666 762.946 212.997 761.964 213.228C760.976 213.464 759.978 213.597 758.965 213.634C757.951 213.67 756.948 213.608 755.946 213.445C754.948 213.284 753.972 213.025 753.021 212.671C752.071 212.316 751.167 211.874 750.304 211.339C749.445 210.809 748.643 210.193 747.9 209.503C747.157 208.813 746.493 208.057 745.899 207.232C745.309 206.408 744.802 205.535 744.381 204.612C743.961 203.689 743.631 202.733 743.4 201.746C743.17 200.759 743.031 199.755 742.995 198.742C742.959 197.728 743.027 196.721 743.19 195.718C743.352 194.716 743.605 193.738 743.96 192.788C744.314 191.838 744.762 190.929 745.293 190.065C745.823 189.201 746.439 188.399 747.129 187.656C747.819 186.913 748.576 186.244 749.396 185.649C750.22 185.054 751.089 184.546 752.012 184.126C752.934 183.706 753.89 183.375 754.872 183.144C755.86 182.908 756.858 182.774 757.871 182.738C758.885 182.702 759.893 182.765 760.891 182.926C761.893 183.089 762.864 183.347 763.815 183.701C764.765 184.056 765.67 184.498 766.533 185.033C767.391 185.563 768.194 186.178 768.937 186.868C769.68 187.559 770.343 188.315 770.938 189.139C771.527 189.963 772.034 190.837 772.455 191.76C772.875 192.682 773.206 193.638 773.436 194.625C773.672 195.613 773.805 196.616 773.841 197.63C773.877 198.643 773.814 199.652 773.652 200.654Z" fill="#3E5FBA"/>
</svg>
