<svg width="633" height="663" viewBox="0 0 633 663" fill="none" xmlns="http://www.w3.org/2000/svg">
<mask id="mask0_2493_5999" style="mask-type:luminance" maskUnits="userSpaceOnUse" x="69" y="144" width="480" height="213">
<path d="M69.0645 188.312L533.003 144.491L548.855 312.314L84.9163 356.136L69.0645 188.312Z" fill="white"/>
</mask>
<g mask="url(#mask0_2493_5999)">
<path d="M541.527 234.796C541.921 238.963 541.895 243.117 541.466 247.252L534.422 252.254L530.368 255.135L526.691 257.744L528.182 259.889L529.904 262.357L535.117 269.839C532.418 275.706 528.935 281.471 524.732 287.109C520.069 284.816 515.149 282.37 510.861 280.237C509.981 279.794 509.123 279.371 508.303 278.964C502.751 276.19 498.778 274.194 498.778 274.194L502.503 284.532L503.697 287.839L503.739 287.952L505.258 292.161L509.529 304.007C505.363 307.94 500.838 311.775 495.975 315.498C495.972 315.501 495.972 315.501 495.972 315.501C495.185 316.105 494.382 316.703 493.576 317.302L140.474 350.655C132.784 346.949 125.676 342.906 119.226 338.561C118.137 337.832 117.072 337.092 116.022 336.344C111.542 333.145 107.399 329.792 103.633 326.295L132.337 313.411L78.4093 282.442C78.207 281.167 78.0446 279.882 77.9223 278.586C77.848 277.799 77.7864 277.015 77.7439 276.231C77.6753 275.038 77.6416 273.847 77.6428 272.66C77.647 266.704 78.4954 260.784 80.1252 254.936L86.1686 258.377L88.7646 252.724L88.7644 252.721L90.0042 250.012L96.0952 236.722L115.188 214.661L112.349 211.445L110.247 209.064C110.661 208.676 111.081 208.286 111.498 207.904C119.982 200.113 129.889 192.715 141.038 185.835C141.889 185.307 142.749 184.782 143.617 184.265C145.201 183.31 146.81 182.37 148.445 181.441L454.069 152.573C457.2 153.647 460.268 154.762 463.269 155.925C464.374 156.356 465.469 156.788 466.553 157.23C474.133 160.3 481.246 163.663 487.852 167.291C488.838 167.834 489.81 168.384 490.775 168.939C494.302 170.968 497.675 173.078 500.882 175.263C491.785 179.224 484.146 182.569 484.146 182.569L505.865 201.381L508.794 203.92L516.737 210.798L531.523 211.02L534.48 211.062C537.091 216.135 539.034 221.4 540.265 226.837C540.263 226.843 540.263 226.846 540.267 226.849L540.267 226.852C540.856 229.458 541.279 232.105 541.533 234.792L541.527 234.796Z" fill="#934C1C"/>
</g>
<path d="M534.246 227.209C534.64 231.377 534.614 235.53 534.185 239.665L527.142 244.668L523.087 247.548L519.41 250.157L520.904 252.302L522.626 254.77L527.836 262.252C525.137 268.12 521.654 273.885 517.451 279.523C512.788 277.229 507.868 274.784 503.58 272.65C502.7 272.207 501.842 271.785 501.022 271.377C495.47 268.604 491.497 266.607 491.497 266.607L495.222 276.945L496.419 280.252L496.458 280.365L497.977 284.575L502.248 296.42C498.085 300.353 493.56 304.188 488.697 307.911C488.694 307.914 488.691 307.914 488.691 307.914C487.904 308.518 487.101 309.12 486.295 309.715L133.193 343.068C125.503 339.363 118.398 335.319 111.945 330.974C110.856 330.246 109.791 329.505 108.741 328.757C104.261 325.558 100.121 322.208 96.3523 318.709L125.056 305.824L71.1284 274.856C70.9257 273.577 70.7634 272.292 70.6413 270.999C70.567 270.213 70.5055 269.428 70.463 268.645C70.3943 267.451 70.3634 266.257 70.3646 265.07C70.366 259.117 71.2144 253.197 72.847 247.346L78.8877 250.791L81.4834 245.135L81.4831 245.131L82.7232 242.425L88.8139 229.132L107.906 207.071L105.068 203.855L102.969 201.474C103.383 201.089 103.8 200.7 104.217 200.314C112.701 192.527 122.611 185.128 133.757 178.245C134.607 177.718 135.468 177.195 136.335 176.676C137.92 175.723 139.529 174.783 141.163 173.851L446.788 144.983C449.918 146.058 452.99 147.175 455.988 148.338C457.092 148.766 458.188 149.198 459.275 149.64C466.852 152.71 473.965 156.073 480.571 159.704C481.557 160.247 482.529 160.798 483.494 161.349C487.02 163.378 490.394 165.488 493.601 167.673C484.504 171.638 476.868 174.979 476.868 174.979L498.584 193.791L501.513 196.33L509.456 203.211L524.242 203.43L527.199 203.475C529.81 208.545 531.753 213.814 532.988 219.25C532.982 219.256 532.982 219.256 532.988 219.259L532.989 219.262C533.575 221.871 533.998 224.518 534.252 227.202L534.246 227.209Z" fill="#B5622A"/>
<path d="M254.276 217.238C254.112 221.569 251.933 225.012 248.799 226.934C245.704 228.832 242.142 229.298 238.783 230.311C235.159 231.406 231.801 233.364 228.871 236.076C225.951 238.773 223.496 242.212 221.774 246.119C219.801 250.608 218.793 255.601 217.484 260.411C214.839 270.144 210.075 278.581 205.014 286.678C200.063 294.601 194.707 302.165 188.596 308.843C182.293 315.728 175.207 321.115 167.476 325.511C159.787 329.882 151.835 333.606 144.56 338.892C142.995 340.028 141.457 341.21 139.947 342.43L134.991 342.898C140.35 338.294 145.951 334.089 151.977 330.607C159.8 326.088 168.015 322.421 175.412 316.957C182.321 311.857 188.382 305.348 193.805 298.184C199.281 290.952 204.362 283.111 208.772 274.887C211.012 270.698 212.99 266.268 214.426 261.572C215.872 256.843 216.795 251.881 218.455 247.255C221.365 239.156 226.844 232.655 233.626 229.148C236.86 227.479 240.328 226.896 243.73 225.844C246.9 224.864 250.245 223.27 251.373 219.283C252.542 215.157 250.865 210.439 249.299 206.685C247.557 202.513 245.565 197.866 242.341 195.028C239.122 192.195 235.006 191.15 231.18 190.384C227.229 189.589 223.243 189.263 219.256 189.258C202.958 189.229 187.064 194.151 170.734 193.621C162.876 193.365 155.03 191.747 147.743 187.84C142.824 185.202 138.289 181.725 133.751 178.252C134.601 177.724 135.462 177.202 136.329 176.682C136.346 176.693 136.357 176.705 136.373 176.716C143.482 182.129 150.708 186.955 158.977 189.031C166.986 191.037 175.162 190.853 183.196 190.041C199.493 188.391 215.966 183.96 232.451 187.571C236.351 188.428 240.342 189.676 243.661 192.471C247.089 195.36 249.141 199.919 251.059 204.223C252.848 208.23 254.446 212.678 254.273 217.242L254.276 217.238Z" fill="#9E5220"/>
<path d="M203.246 238.573C201.5 245.333 197.646 251.067 193.189 255.554C187.999 260.781 181.928 264.583 176.269 269.039C171.33 272.929 166.925 277.528 162.86 282.636C155.011 292.511 148.37 303.718 140.036 313.056C135.881 317.71 131.347 321.817 126.237 324.92C121.724 327.651 116.873 329.496 111.946 330.975C110.857 330.246 109.792 329.506 108.742 328.758C110.325 328.316 111.893 327.849 113.45 327.334C119.298 325.405 124.915 322.764 129.949 318.777C134.61 315.086 138.718 310.541 142.53 305.69C150.355 295.722 157.053 284.532 165.463 275.215C170.092 270.091 175.301 266.031 180.672 262.084C186.154 258.052 191.744 253.917 195.895 247.963C199.492 242.811 202.143 236.239 201.579 229.263C201.313 225.946 200.238 222.467 197.372 221.232C195.8 220.555 194.043 220.359 192.403 220.123C190.602 219.862 188.789 219.703 186.979 219.647C179.734 219.415 172.551 220.581 165.501 222.186C158.861 223.698 152.202 226.172 145.365 226.299C142.172 226.358 138.961 225.842 135.948 224.376C132.911 222.892 130.279 220.426 127.711 218.013C125.195 215.646 122.624 213.429 119.838 211.541C117.033 209.64 114.111 208.01 111.137 206.559C109.133 205.586 107.107 204.697 105.066 203.863L102.964 201.482C103.381 201.096 103.798 200.707 104.215 200.321C110.436 202.773 116.523 205.641 122.178 209.705C124.992 211.729 127.572 214.077 130.159 216.491C132.718 218.882 135.399 221.196 138.543 222.282C144.949 224.492 151.651 222.571 157.878 220.956C164.914 219.132 172.003 217.449 179.225 216.83C182.833 216.52 186.464 216.489 190.091 216.814C191.897 216.974 193.7 217.226 195.492 217.598C197.066 217.922 198.638 218.397 200.005 219.462C205.113 223.442 204.765 232.688 203.246 238.579L203.246 238.573Z" fill="#9E5220"/>
<path d="M164.586 260.404C161.647 263.724 157.738 265.91 153.871 267.34C145.777 270.331 137.094 270.144 128.633 270.181C124.305 270.199 119.971 270.252 115.676 270.756C111.238 271.276 107 272.514 102.739 273.937C98.3093 275.413 93.7821 276.956 89.1115 277.048C86.8232 277.09 84.5061 276.796 82.2866 276.001C80.1913 275.254 78.2058 274.169 76.2937 272.895C74.3111 271.573 72.4056 270.068 70.4634 268.642C70.3951 267.452 70.3642 266.258 70.3653 265.07C73.0952 267.002 75.713 269.179 78.5349 270.919C80.3904 272.06 82.3217 273.006 84.3563 273.509C86.5195 274.042 88.7015 274.107 90.8745 273.876C95.3541 273.397 99.6361 271.757 103.931 270.357C108.137 268.983 112.37 267.991 116.745 267.568C120.958 267.164 125.198 267.151 129.432 267.135C137.588 267.108 146.054 267.257 153.794 264.132C157.289 262.721 160.933 260.667 163.433 257.395C164.57 255.901 165.594 254.101 166.038 252.138C166.39 250.596 166.4 249.067 165.864 247.631C165.039 247.766 164.217 247.897 163.395 248.025C154.503 249.435 145.594 250.724 136.674 251.894C132.235 252.477 127.793 253.051 123.349 253.537C119.041 254.01 114.71 254.328 110.364 254.051C106.214 253.785 102.154 252.88 98.1407 251.493C94.2348 250.145 90.4146 248.471 86.5469 246.963C84.8763 246.311 83.1887 245.68 81.481 245.136L81.4807 245.133L82.7205 242.423C84.7108 243.092 86.6815 243.854 88.6416 244.636C92.486 246.165 96.3073 247.817 100.222 249.054C104.324 250.345 108.472 251.052 112.681 251.111C117.08 251.175 121.456 250.701 125.809 250.18C130.327 249.64 134.842 249.065 139.347 248.463C148.38 247.251 157.399 245.914 166.399 244.459C166.812 244.392 167.339 244.676 167.569 245.108C168.109 246.122 168.478 247.17 168.689 248.331C169.516 252.883 167.195 257.455 164.586 260.401L164.586 260.404Z" fill="#9E5220"/>
<path d="M497.979 284.575C496.766 289.136 495.937 293.955 494.432 298.289C493.091 302.164 491.161 305.171 488.696 307.908C488.693 307.911 488.693 307.911 488.693 307.911C487.907 308.518 487.104 309.117 486.297 309.716L482.689 310.056C485.002 307.337 487.848 305.232 489.781 302.057C492.164 298.15 493.244 293.312 494.318 288.687C494.962 285.899 495.595 283.071 496.46 280.362L497.979 284.571L497.979 284.575Z" fill="#9E5220"/>
<path d="M520.904 252.298L522.627 254.769C520.782 258.071 518.557 260.98 515.757 263.276C512.107 266.276 507.932 268.346 504.483 271.698C504.172 272.005 503.871 272.32 503.583 272.646C502.704 272.203 501.845 271.78 501.026 271.373C502.833 269.133 504.983 267.323 507.286 265.704C511.127 262.998 515.238 260.651 518.235 256.613C519.232 255.266 520.112 253.816 520.904 252.298Z" fill="#9E5220"/>
<path d="M498.58 193.797L501.512 196.336C492.052 197.567 483.134 202.16 473.979 204.845C452.853 211.042 430.787 210.298 409.057 211.16C397.829 211.607 386.662 212.602 375.647 214.93C364.728 217.237 354.004 220.489 343.186 223.3C332.674 226.032 322.052 228.355 311.234 229.03C301.83 229.622 291.215 229.447 284.799 238.73C282.169 242.531 280.434 247.067 278.488 251.395C276.49 255.842 274.237 259.935 271.138 263.39C265.082 270.151 256.749 274.737 253.132 284.124C251.18 289.19 250.511 294.847 248.585 299.923C246.911 304.339 244.225 307.969 240.831 310.608C233.984 315.932 225.617 317.459 217.924 320.45C209.036 323.901 200.968 329.731 194.279 337.295L190.238 337.676C193.98 333.024 198.209 328.92 202.789 325.505C206.44 322.785 210.324 320.472 214.373 318.663C218.382 316.873 222.556 315.657 226.67 314.242C234.981 311.384 243.272 307.511 246.693 297.324C248.428 292.158 249.125 286.499 251.299 281.553C253.22 277.189 256.15 273.735 259.323 270.66C262.762 267.328 266.519 264.434 269.714 260.756C272.935 257.047 275.082 252.507 277.144 247.806C279.056 243.446 280.968 238.947 283.828 235.357C286.86 231.546 290.793 229.15 295.094 227.912C299.683 226.594 304.425 226.36 309.149 226.096C314.618 225.788 320.039 225.172 325.436 224.205C336.627 222.2 347.591 218.972 358.598 216.015C369.38 213.116 380.214 210.543 391.282 209.334C402.683 208.093 414.172 207.943 425.636 207.629C436.814 207.326 448.019 206.875 459.072 205.082C464.692 204.173 470.26 202.913 475.714 201.148C480.945 199.457 486.056 197.32 491.296 195.66C493.696 194.898 496.132 194.249 498.583 193.794L498.58 193.797Z" fill="#9E5220"/>
<path d="M532.978 219.252C532.978 219.252 532.976 219.262 532.979 219.265L532.979 219.268C533.085 224.521 531.991 229.679 530.556 234.555C529.555 237.957 528.412 241.356 527.141 244.666L523.086 247.547C523.878 245.623 524.602 243.656 525.322 241.717C529.106 231.536 533.513 218.348 527.443 207.728C526.523 206.121 525.444 204.695 524.235 203.436L527.193 203.481C529.804 208.551 531.747 213.819 532.978 219.256L532.978 219.252Z" fill="#9E5220"/>
<path d="M441.615 313.931L438.8 314.197C437.072 311.312 435.166 308.569 433.107 306.004C429.717 301.783 425.908 298.297 421.971 294.855C417.897 291.287 414.489 287.313 412.805 281.526C411.962 278.629 411.479 275.613 410.936 272.631C410.32 269.216 409.618 265.817 408.821 262.447C408.037 259.11 407.167 255.803 406.218 252.523C405.443 249.853 404.716 247.027 403.478 244.58C402.24 242.149 400.502 240.518 398.137 240.046C395.714 239.563 393.235 240.086 390.85 240.441C369.825 243.57 347.793 247.182 330.247 261.881C326.188 265.276 322.52 269.219 319.3 273.696C316.085 278.167 313.13 282.953 309.197 286.591C305.222 290.27 300.538 292.719 295.895 295.003C291.363 297.229 286.865 299.481 282.506 302.142C269.892 309.846 258.433 320.047 248.635 332.159L244.758 332.526C256.72 317.078 271.303 304.551 287.467 295.887C292.07 293.421 296.856 291.41 301.369 288.725C306.057 285.942 309.878 282.193 313.258 277.477C316.561 272.872 319.691 268.208 323.533 264.21C327.272 260.323 331.411 257.003 335.78 254.178C344.959 248.253 354.987 244.565 365.252 242.03C370.864 240.644 376.538 239.601 382.229 238.682C385.151 238.211 388.076 237.771 391.001 237.334C393.314 236.989 395.654 236.623 398.006 236.959C403.002 237.677 405.709 242.266 407.394 247.505C409.459 253.93 411.105 260.556 412.48 267.213C413.738 273.302 414.164 280.377 417.35 285.663C420.191 290.381 424.668 293.265 428.408 296.83C433.585 301.761 437.947 307.538 441.615 313.935L441.615 313.931Z" fill="#9E5220"/>
<path d="M413.868 316.553L411.143 316.81C408.927 311.744 406.163 306.95 401.54 304.75C398.398 303.258 395.03 302.6 392.282 300.044C390.234 298.133 388.802 295.472 387.847 292.633C385.845 286.674 385.696 280.188 384.079 274.11C383.324 271.278 382.218 268.267 380.314 266.214C379.655 265.505 379.114 265.285 378.248 265.515C377.409 265.736 376.576 266.076 375.761 266.389C374.136 267.018 372.538 267.739 370.97 268.542C364.676 271.748 358.92 276.175 353.268 280.687C347.483 285.309 341.764 290.076 335.597 293.987C328.793 298.302 321.575 301.655 314.764 305.961C305.246 311.972 296.464 319.535 288.705 328.375L284.67 328.756C294.329 317.176 305.611 307.695 318.003 300.578C324.933 296.601 332.05 293.11 338.642 288.389C344.665 284.076 350.35 279.158 356.262 274.64C362.077 270.198 368.175 266.085 374.807 263.522C376.451 262.888 378.401 261.897 380.154 262.623C381.612 263.222 382.732 264.751 383.631 266.197C385.262 268.824 386.25 271.921 386.931 275.035C387.64 278.268 388.086 281.559 388.64 284.823C389.15 287.789 389.76 290.808 390.967 293.519C392.235 296.379 394.213 298.387 396.712 299.603C399.85 301.127 403.127 301.819 405.963 304.2C409.615 307.263 411.896 311.845 413.868 316.553Z" fill="#9E5220"/>
<path d="M483.489 161.355C481.255 162.735 479.046 164.185 476.865 165.704C472.021 169.087 467.195 172.601 461.864 174.872C456.418 177.191 450.643 178.329 444.903 179.296C432.377 181.396 419.826 183.372 407.283 185.394C394.845 187.397 382.503 188.84 369.861 188.016C363.657 187.613 357.455 186.957 351.248 186.851C345.318 186.746 339.443 187.323 333.572 188.035C322.161 189.412 310.43 191.201 298.986 187.951C288.852 185.072 279.956 178.268 271.332 171.414C267.49 168.369 263.654 165.396 259.727 162.658L264.055 162.249C268.235 165.36 272.326 168.671 276.479 171.895C285.738 179.083 295.364 185.015 306.392 186.351C318.133 187.771 329.76 185.088 341.378 184.139C353.658 183.133 365.915 185.283 378.217 185.311C390.825 185.342 403.277 182.957 415.683 180.95C421.933 179.938 428.179 178.926 434.428 177.911C440.436 176.94 446.498 176.141 452.436 174.733C458.401 173.316 463.957 170.895 469.242 167.407C473.048 164.893 476.755 162.203 480.566 159.71C481.552 160.253 482.524 160.804 483.489 161.355Z" fill="#9E5220"/>
<path d="M459.269 149.642C457.828 150.559 456.4 151.501 454.982 152.457C451.716 154.658 448.453 156.909 444.94 158.529C441.319 160.194 437.464 160.987 433.592 161.504C429.519 162.046 425.429 162.454 421.351 162.918C405.054 164.772 388.768 166.865 372.435 168.402C357.322 169.82 341.762 170.212 326.826 165.466C321.167 163.666 315.628 161.16 310.445 157.863L315.305 157.404C321.124 160.571 327.312 162.78 333.531 164.177C348.934 167.632 364.608 166.253 379.959 164.551C396.213 162.748 412.459 160.857 428.706 159.008C432.588 158.569 436.522 158.213 440.29 157.066C443.957 155.955 447.341 154.01 450.616 151.848C452.404 150.672 454.189 149.498 455.981 148.337C457.086 148.768 458.182 149.2 459.269 149.642Z" fill="#9E5220"/>
<path d="M271.475 210.897C270.767 213.54 269.649 215.967 268.682 218.468C267.716 220.971 266.964 223.575 266.369 226.248C265.176 231.621 264.493 237.153 263.29 242.52C262.168 247.545 260.552 252.271 258.062 256.519C255.735 260.48 252.82 263.893 249.771 267.053C243.659 273.388 236.748 278.765 231.552 286.257C230.03 288.448 228.695 290.811 227.152 292.981C225.593 295.182 223.795 297.075 221.735 298.605C217.731 301.581 213.286 303.768 209.143 306.471C201.112 311.699 193.422 317.629 186.135 324.185C180.824 328.963 175.737 334.08 170.893 339.504L166.779 339.893C173.75 331.82 181.245 324.391 189.175 317.696C196.591 311.433 204.393 305.824 212.501 300.888C216.732 298.312 221.267 296.145 224.507 291.883C226.084 289.81 227.415 287.495 228.86 285.293C230.122 283.388 231.495 281.592 232.95 279.892C238.765 273.113 245.703 267.853 251.451 260.995C254.241 257.67 256.725 253.959 258.434 249.684C260.428 244.693 261.366 239.228 262.3 233.813C263.216 228.505 264.145 223.139 265.949 218.171C267.697 213.367 270.362 208.712 269.448 203.142C268.641 198.191 265.387 194.111 262.058 191.204C258.444 188.052 254.216 186.124 250.177 183.942C246.099 181.735 242.029 179.216 238.804 175.407C236.302 172.456 234.347 168.965 232.901 165.187L235.572 164.934C236.172 166.38 236.854 167.774 237.636 169.117C240.107 173.369 243.445 176.505 247.252 178.908C251.35 181.491 255.717 183.352 259.791 185.982C263.654 188.47 267.348 191.907 269.737 196.365C272.156 200.877 272.808 205.908 271.472 210.897L271.475 210.897Z" fill="#9E5220"/>
<path d="M496.42 280.249C490.733 278.814 484.817 277.858 479.643 274.385C474.321 270.812 470.404 264.946 465.144 261.295C460.042 257.755 454.134 257.05 448.562 255.293C443.089 253.564 438.433 250.643 434.733 245.368C432.833 242.662 431.248 239.681 429.553 236.802C427.851 233.923 425.921 230.484 423.294 228.71C420.384 226.742 416.343 227.965 413.246 228.276L401.96 229.411C394.549 230.159 387.141 230.903 379.73 231.65C365.026 233.13 350.284 234.378 335.606 236.101C332.467 236.47 329.158 237.044 326.545 239.218C324.26 241.125 322.737 244.006 321.238 246.743C319.766 249.43 318.258 252.092 316.156 254.143C313.99 256.253 311.337 257.565 308.687 258.618C305.904 259.722 303.03 260.563 300.329 261.937C297.24 263.51 294.512 265.862 291.89 268.305C286.418 273.414 281.068 278.71 275.752 284.041C264.94 294.885 254.385 306.09 244.109 317.643C239.346 322.997 234.644 328.424 230.006 333.92L225.783 334.319C228.092 331.6 230.503 328.988 232.77 326.346C237.786 320.511 242.87 314.759 248.017 309.085C258.471 297.572 269.199 286.407 280.186 275.615C285.387 270.504 290.548 264.735 296.47 260.789C301.761 257.26 308.256 256.719 313.327 252.766C318.049 249.079 319.707 242.163 323.861 237.806C328.622 232.802 335.77 233.005 341.824 232.396C356.871 230.88 371.919 229.364 386.966 227.851C394.489 227.093 402.016 226.335 409.54 225.577C413.027 225.229 416.636 224.504 420.149 224.686C423.243 224.844 425.584 226.588 427.709 229.25C431.784 234.358 434.26 241 438.535 245.884C442.979 250.963 448.891 252.345 454.63 253.86C460.417 255.389 465.611 257.506 470.352 261.99C472.775 264.281 475.019 266.834 477.479 269.074C480.149 271.506 483.073 273.261 486.266 274.424C489.214 275.497 492.222 276.205 495.223 276.938L496.42 280.246L496.42 280.249Z" fill="#9E5220"/>
<mask id="mask1_2493_5999" style="mask-type:luminance" maskUnits="userSpaceOnUse" x="80" y="330" width="480" height="270">
<path d="M80.1074 373.521L537.926 330.278L559.293 556.487L101.474 599.73L80.1074 373.521Z" fill="white"/>
</mask>
<g mask="url(#mask1_2493_5999)">
<path d="M551.362 491.016C550.975 495.185 550.173 499.261 548.981 503.244L541.127 506.843L536.609 508.917L532.511 510.797L533.577 513.181L534.809 515.924L538.536 524.249C534.791 529.51 530.293 534.527 525.115 539.281C520.96 536.158 516.584 532.836 512.768 529.943C511.984 529.343 511.221 528.77 510.492 528.215C505.555 524.458 502.022 521.752 502.022 521.752L503.758 532.602L504.313 536.074L504.33 536.192L505.041 540.613L507.028 553.046C502.205 556.131 497.044 559.059 491.573 561.809C491.569 561.81 491.566 561.81 491.566 561.81C490.68 562.259 489.78 562.697 488.877 563.138L135.742 530.098C128.876 525.02 122.651 519.725 117.122 514.253C116.188 513.334 115.278 512.405 114.387 511.475C110.58 507.501 107.138 503.436 104.089 499.296L134.693 491.989L87.4748 451.511C87.5165 450.219 87.5928 448.927 87.7159 447.63C87.7898 446.845 87.8764 446.062 87.9827 445.287C88.1351 444.101 88.3263 442.924 88.5498 441.756C89.6598 435.907 91.5974 430.25 94.2921 424.808L99.586 429.316L103.188 424.245L103.188 424.242L104.91 421.811L113.369 409.888L136.242 391.772L134.051 388.083L132.433 385.354C132.911 385.05 133.393 384.75 133.878 384.446C143.664 378.378 154.778 372.954 167.009 368.271C167.945 367.911 168.891 367.554 169.838 367.21C171.572 366.567 173.33 365.945 175.105 365.333L480.757 393.932C483.633 395.573 486.438 397.241 489.169 398.943C490.173 399.572 491.17 400.199 492.156 400.837C499.027 405.265 505.39 409.895 511.203 414.694C512.071 415.412 512.926 416.134 513.769 416.858C516.853 419.508 519.775 422.209 522.522 424.954C512.846 427.153 504.718 429.014 504.718 429.014L522.546 451.543L524.953 454.585L531.475 462.826L545.96 465.798L548.856 466.39C550.478 471.859 551.404 477.397 551.6 482.969C551.597 482.972 551.597 482.975 551.601 482.978L551.601 482.981C551.693 485.653 551.615 488.334 551.365 491.019L551.362 491.016Z" fill="#934C1C"/>
</g>
<mask id="mask2_2493_5999" style="mask-type:luminance" maskUnits="userSpaceOnUse" x="74" y="321" width="480" height="271">
<path d="M74.4121 365.189L532.303 321.939L553.665 548.101L95.7743 591.351L74.4121 365.189Z" fill="white"/>
</mask>
<g mask="url(#mask2_2493_5999)">
<path d="M545.627 482.203C545.237 486.372 544.435 490.451 543.246 494.431L535.393 498.032L530.872 500.106L526.773 501.983L527.839 504.368L529.071 507.114L532.798 515.436C529.054 520.7 524.555 525.714 519.377 530.467C515.225 527.345 510.846 524.026 507.03 521.13C506.247 520.533 505.487 519.956 504.757 519.401C499.818 515.644 496.287 512.941 496.287 512.941L498.021 523.789L498.579 527.263L498.596 527.381L499.303 531.8L501.293 544.235C496.468 547.321 491.306 550.246 485.835 552.996C485.832 552.999 485.829 553 485.829 553C484.942 553.446 484.045 553.886 483.142 554.324L130.007 521.284C123.142 516.206 116.914 510.914 111.384 505.443C110.453 504.523 109.544 503.595 108.653 502.665C104.845 498.688 101.403 494.622 98.3516 490.482L128.955 483.176L81.7404 442.701C81.779 441.409 81.8584 440.116 81.9815 438.82C82.0551 438.032 82.142 437.252 82.2449 436.474C82.4008 435.29 82.5919 434.113 82.8123 432.946C83.9255 427.096 85.8627 421.436 88.5543 415.994L93.8485 420.505L97.4502 415.431L97.4499 415.428L99.173 413.001L107.635 401.077L130.504 382.962L128.314 379.273L126.695 376.543C127.177 376.24 127.658 375.936 128.14 375.635C137.926 369.565 149.04 364.143 161.275 359.457C162.211 359.098 163.153 358.744 164.103 358.396C165.838 357.757 167.592 357.131 169.37 356.522L475.02 385.122C477.895 386.759 480.704 388.431 483.431 390.132C484.438 390.758 485.436 391.389 486.419 392.026C493.289 396.455 499.653 401.085 505.465 405.884C506.336 406.598 507.188 407.321 508.031 408.045C511.119 410.698 514.041 413.398 516.785 416.144C507.108 418.343 498.98 420.203 498.98 420.203L516.812 442.733L519.218 445.775L525.737 454.013L540.222 456.984L543.119 457.58C544.744 463.049 545.667 468.586 545.865 474.155C545.863 474.162 545.86 474.165 545.863 474.168L545.864 474.171C545.958 476.839 545.881 479.52 545.627 482.206L545.627 482.203Z" fill="#B5622A"/>
</g>
<path d="M272.422 420.23C271.451 424.454 268.672 427.428 265.233 428.733C261.835 430.024 258.251 429.814 254.765 430.184C250.999 430.584 247.333 431.882 243.95 433.999C240.578 436.107 237.526 439.028 235.106 442.545C232.329 446.587 230.41 451.303 228.229 455.786C223.815 464.855 217.561 472.255 211.079 479.271C204.739 486.131 198.07 492.562 190.82 497.984C183.347 503.575 175.378 507.55 166.964 510.423C158.594 513.283 150.093 515.462 141.957 519.298C140.208 520.125 138.477 521 136.766 521.918L131.81 521.454C137.932 517.931 144.218 514.839 150.791 512.543C159.319 509.558 168.073 507.49 176.358 503.498C184.096 499.775 191.263 494.509 197.927 488.484C204.658 482.4 211.111 475.643 216.975 468.383C219.957 464.687 222.727 460.703 225.012 456.358C227.316 451.98 229.145 447.278 231.635 443.04C236.005 435.626 242.602 430.259 249.915 428.079C253.407 427.04 256.922 427.111 260.458 426.711C263.758 426.343 267.34 425.4 269.194 421.691C271.108 417.856 270.342 412.912 269.503 408.928C268.569 404.506 267.479 399.566 264.838 396.181C262.204 392.796 258.357 391.005 254.739 389.535C251.003 388.017 247.146 386.955 243.233 386.206C227.225 383.142 210.693 385.012 194.748 381.451C187.075 379.731 179.668 376.683 173.238 371.483C168.898 367.975 165.089 363.714 161.276 359.457C162.212 359.098 163.155 358.741 164.104 358.396C164.115 358.408 164.126 358.422 164.139 358.434C170.114 365.079 176.313 371.164 184.051 374.745C191.545 378.213 199.613 379.555 207.659 380.253C223.978 381.673 240.986 380.387 256.509 387.006C260.187 388.574 263.872 390.547 266.608 393.91C269.443 397.387 270.607 402.25 271.692 406.835C272.7 411.108 273.44 415.772 272.422 420.224L272.422 420.23Z" fill="#9E5220"/>
<path d="M218.303 431.679C215.331 437.994 210.474 442.906 205.26 446.485C199.186 450.653 192.514 453.254 186.124 456.582C180.545 459.484 175.358 463.177 170.417 467.439C160.86 475.68 152.252 485.451 142.319 493.072C137.372 496.869 132.153 500.061 126.554 502.155C121.611 504.001 116.498 504.906 111.384 505.443C110.451 504.523 109.541 503.595 108.65 502.665C110.287 502.526 111.918 502.359 113.541 502.143C119.647 501.337 125.656 499.789 131.342 496.808C136.611 494.049 141.495 490.353 146.141 486.299C155.688 477.961 164.356 468.216 174.355 460.629C179.859 456.456 185.733 453.441 191.743 450.562C197.88 447.623 204.141 444.6 209.333 439.527C213.827 435.134 217.653 429.173 218.401 422.214C218.759 418.905 218.351 415.287 215.764 413.541C214.345 412.582 212.655 412.061 211.087 411.526C209.365 410.933 207.615 410.44 205.849 410.046C198.773 408.469 191.499 408.274 184.275 408.537C177.472 408.783 170.467 409.971 163.724 408.822C160.572 408.285 157.514 407.182 154.831 405.177C152.12 403.152 149.994 400.242 147.92 397.392C145.89 394.598 143.778 391.941 141.394 389.567C138.992 387.177 136.427 385.026 133.775 383.049C131.987 381.719 130.162 380.468 128.31 379.269L126.692 376.54C127.174 376.237 127.655 375.933 128.137 375.632C133.789 379.199 139.238 383.151 144.038 388.196C146.423 390.708 148.523 393.499 150.612 396.353C152.68 399.178 154.882 401.953 157.774 403.604C163.653 406.97 170.596 406.33 177.014 405.907C184.265 405.426 191.545 405.095 198.756 405.828C202.362 406.196 205.931 406.844 209.435 407.839C211.182 408.333 212.906 408.919 214.597 409.616C216.081 410.229 217.539 410.992 218.682 412.289C222.961 417.151 220.894 426.171 218.302 431.676L218.303 431.679Z" fill="#9E5220"/>
<path d="M176.253 445.923C172.749 448.635 168.501 450.057 164.437 450.74C155.925 452.171 147.429 450.368 139.109 448.827C134.853 448.041 130.584 447.285 126.273 446.978C121.813 446.662 117.419 447.09 112.967 447.693C108.341 448.319 103.605 448.993 99.0002 448.209C96.7438 447.824 94.5218 447.101 92.4882 445.908C90.5715 444.785 88.8235 443.347 87.1821 441.738C85.4784 440.069 83.8884 438.238 82.2451 436.475C82.401 435.292 82.5921 434.115 82.8125 432.948C85.1336 435.352 87.3028 437.982 89.7496 440.217C91.3587 441.684 93.0801 442.973 94.986 443.848C97.0132 444.775 99.1453 445.244 101.322 445.423C105.812 445.786 110.327 444.975 114.81 444.398C119.196 443.832 123.54 443.645 127.917 444.048C132.129 444.434 136.299 445.212 140.459 445.984C148.479 447.479 156.766 449.203 164.957 447.576C168.653 446.839 172.617 445.501 175.683 442.755C177.079 441.499 178.419 439.92 179.221 438.077C179.853 436.626 180.148 435.124 179.89 433.617C179.056 433.592 178.223 433.57 177.392 433.542C168.395 433.27 159.399 432.879 150.42 432.363C145.95 432.108 141.479 431.847 137.019 431.494C132.701 431.155 128.384 430.659 124.166 429.577C120.139 428.543 116.322 426.901 112.633 424.789C109.048 422.737 105.607 420.379 102.09 418.179C100.567 417.227 99.0273 416.292 97.4538 415.436L97.4535 415.433L99.1763 413.002C101.005 414.033 102.802 415.145 104.581 416.281C108.075 418.499 111.52 420.835 115.136 422.78C118.924 424.812 122.87 426.282 126.992 427.124C131.301 428.005 135.689 428.356 140.063 428.655C144.602 428.966 149.143 429.243 153.685 429.491C162.785 429.986 171.895 430.354 181.009 430.601C181.426 430.609 181.89 430.988 182.035 431.456C182.38 432.551 182.547 433.65 182.539 434.832C182.504 439.459 179.37 443.515 176.256 445.923L176.253 445.923Z" fill="#9E5220"/>
<path d="M499.302 531.806C497.26 536.061 495.545 540.642 493.26 544.619C491.219 548.175 488.765 550.772 485.833 553.002C485.83 553.002 485.827 553.003 485.827 553.003C484.941 553.452 484.044 553.889 483.141 554.33L479.531 553.991C482.311 551.75 485.501 550.215 487.986 547.457C491.057 544.061 493.023 539.507 494.937 535.166C496.09 532.544 497.24 529.884 498.594 527.384L499.305 531.805L499.302 531.806Z" fill="#9E5220"/>
<path d="M527.839 504.372L529.072 507.119C526.644 510.022 523.915 512.459 520.738 514.199C516.591 516.464 512.103 517.72 508.093 520.373C507.728 520.615 507.371 520.866 507.031 521.134C506.247 520.534 505.487 519.96 504.758 519.406C506.947 517.542 509.399 516.164 511.96 515.006C516.241 513.061 520.718 511.52 524.414 508.113C525.645 506.976 526.779 505.716 527.839 504.372Z" fill="#9E5220"/>
<path d="M516.807 442.731L519.213 445.773C509.689 445.221 500.071 448.069 490.577 449.001C468.666 451.156 447.123 446.309 425.613 443.106C414.498 441.453 403.345 440.352 392.088 440.584C380.931 440.816 369.787 442.01 358.637 442.755C347.802 443.482 336.931 443.781 326.176 442.429C316.827 441.259 306.428 439.107 298.397 447.031C295.104 450.277 292.554 454.411 289.838 458.299C287.045 462.295 284.069 465.893 280.377 468.714C273.17 474.226 264.126 477.181 258.827 485.728C255.963 490.342 254.253 495.773 251.412 500.403C248.946 504.428 245.63 507.494 241.807 509.456C234.088 513.41 225.58 513.35 217.466 514.854C208.089 516.59 199.076 520.814 191.098 526.998L187.054 526.621C191.597 522.746 196.518 519.503 201.656 516.999C205.748 515.01 209.994 513.459 214.309 512.437C218.581 511.426 222.909 511.007 227.218 510.383C235.916 509.127 244.78 506.866 250.042 497.497C252.707 492.744 254.449 487.314 257.508 482.861C260.207 478.927 263.729 476.081 267.42 473.654C271.416 471.021 275.65 468.874 279.471 465.858C283.328 462.816 286.285 458.754 289.189 454.521C291.878 450.591 294.593 446.53 298.073 443.534C301.762 440.354 306.071 438.737 310.532 438.319C315.283 437.88 319.986 438.535 324.677 439.156C330.107 439.872 335.548 440.274 341.03 440.333C352.399 440.45 363.773 439.322 375.139 438.466C386.273 437.628 397.397 437.119 408.494 437.995C419.925 438.9 431.242 440.895 442.565 442.723C453.603 444.506 464.694 446.151 475.886 446.452C481.577 446.604 487.283 446.405 492.972 445.688C498.427 445 503.848 443.851 509.303 443.201C511.803 442.898 514.318 442.718 516.809 442.728L516.807 442.731Z" fill="#9E5220"/>
<path d="M545.861 474.153C545.861 474.153 545.859 474.162 545.862 474.165L545.862 474.168C544.985 479.347 542.951 484.213 540.629 488.735C539.012 491.892 537.254 495.016 535.389 498.033L530.871 500.107C532.007 498.365 533.084 496.569 534.154 494.795C539.769 485.496 546.555 473.363 542.571 461.796C541.969 460.048 541.172 458.445 540.218 456.982L543.117 457.574C544.739 463.046 545.665 468.581 545.861 474.153Z" fill="#9E5220"/>
<path d="M438.456 550.149L435.642 549.886C434.477 546.726 433.121 543.673 431.575 540.774C429.03 535.994 425.938 531.861 422.712 527.743C419.374 523.479 416.766 518.938 416.187 512.939C415.897 509.937 415.986 506.883 416.012 503.854C416.043 500.38 415.983 496.912 415.829 493.452C415.679 490.027 415.442 486.616 415.124 483.217C414.86 480.451 414.669 477.537 413.911 474.906C413.147 472.282 411.743 470.358 409.507 469.451C407.215 468.528 404.685 468.578 402.274 468.484C381.034 467.643 358.715 467.084 338.736 478.253C334.117 480.834 329.781 484.024 325.778 487.823C321.788 491.614 317.992 495.768 313.452 498.609C308.861 501.48 303.801 503.017 298.814 504.392C293.947 505.736 289.105 507.11 284.328 508.909C270.5 514.13 257.342 522.016 245.459 532.089L241.58 531.728C256.212 518.778 272.873 509.188 290.369 503.69C295.35 502.123 300.425 501.043 305.363 499.244C310.486 497.384 314.939 494.412 319.139 490.409C323.241 486.503 327.187 482.502 331.705 479.291C336.101 476.168 340.791 473.677 345.609 471.717C355.729 467.608 366.27 465.854 376.827 465.275C382.6 464.96 388.369 464.991 394.131 465.149C397.089 465.229 400.044 465.344 403.002 465.461C405.338 465.555 407.703 465.628 409.955 466.398C414.726 468.036 416.531 473.046 417.211 478.509C418.042 485.206 418.424 492.023 418.534 498.816C418.637 505.036 417.739 512.065 419.882 517.85C421.793 523.015 425.653 526.684 428.667 530.885C432.834 536.696 436.041 543.183 438.453 550.149L438.456 550.149Z" fill="#9E5220"/>
<path d="M410.705 547.55L407.982 547.294C406.746 541.906 404.923 536.679 400.793 533.655C397.983 531.606 394.795 530.332 392.576 527.307C390.921 525.051 390.006 522.164 389.6 519.201C388.744 512.973 389.805 506.571 389.348 500.299C389.135 497.374 388.612 494.211 387.119 491.839C386.604 491.018 386.114 490.699 385.223 490.764C384.357 490.827 383.476 491.005 382.615 491.159C380.901 491.475 379.195 491.888 377.507 492.381C370.725 494.361 364.246 497.64 357.854 501.016C351.307 504.478 344.801 508.097 338.011 510.789C330.523 513.761 322.804 515.712 315.312 518.672C304.842 522.804 294.802 528.596 285.533 535.837L281.495 535.459C293.145 525.883 305.997 518.669 319.498 513.986C327.044 511.368 334.69 509.266 342.045 505.857C348.766 502.74 355.268 498.97 361.918 495.633C368.46 492.351 375.214 489.448 382.21 488.167C383.943 487.849 386.042 487.238 387.633 488.279C388.952 489.14 389.768 490.848 390.381 492.438C391.495 495.325 391.887 498.547 391.978 501.736C392.07 505.047 391.892 508.361 391.833 511.674C391.777 514.68 391.816 517.76 392.495 520.65C393.211 523.698 394.78 526.038 397.006 527.698C399.806 529.78 402.898 531.072 405.241 533.941C408.257 537.634 409.644 542.555 410.705 547.55Z" fill="#9E5220"/>
<path d="M508.027 408.045C505.578 408.985 503.132 409.997 500.71 411.086C495.317 413.507 489.922 416.06 484.264 417.294C478.482 418.561 472.595 418.604 466.777 418.48C454.074 418.209 441.374 417.811 428.676 417.461C416.083 417.114 403.69 416.228 391.422 413.059C385.403 411.508 379.432 409.706 373.352 408.444C367.548 407.235 361.664 406.711 355.766 406.313C344.297 405.542 332.439 405.115 321.803 399.789C312.383 395.07 304.91 386.727 297.714 378.389C294.508 374.68 291.293 371.043 287.943 367.621L292.273 368.025C295.8 371.862 299.206 375.877 302.683 379.819C310.441 388.608 318.79 396.228 329.38 399.596C340.648 403.178 352.573 402.71 364.164 403.942C376.419 405.245 388.057 409.641 400.138 411.962C412.521 414.341 425.202 414.318 437.764 414.659C444.093 414.827 450.42 414.998 456.743 415.166C462.826 415.331 468.93 415.678 475.029 415.401C481.155 415.118 487.064 413.776 492.905 411.335C497.112 409.573 501.258 407.623 505.464 405.884C506.335 406.598 507.187 407.321 508.03 408.044L508.027 408.045Z" fill="#9E5220"/>
<path d="M486.42 392.028C484.833 392.663 483.254 393.319 481.681 393.991C478.064 395.545 474.437 397.15 470.684 398.088C466.817 399.048 462.88 399.108 458.98 398.894C454.878 398.667 450.785 398.307 446.691 398.004C430.334 396.787 413.944 395.809 397.61 394.275C382.497 392.852 367.138 390.338 353.348 382.891C348.125 380.068 343.147 376.572 338.672 372.365L343.529 372.82C348.656 377.019 354.326 380.342 360.176 382.872C374.664 389.139 390.323 390.705 405.72 391.893C422.027 393.15 438.339 394.324 454.645 395.536C458.54 395.827 462.474 396.211 466.389 395.788C470.198 395.374 473.888 394.097 477.511 392.586C479.486 391.76 481.459 390.941 483.432 390.134C484.44 390.763 485.437 391.393 486.42 392.028Z" fill="#9E5220"/>
<path d="M290.497 417.204C289.31 419.669 287.759 421.847 286.342 424.123C284.926 426.401 283.7 428.82 282.622 431.337C280.448 436.393 278.745 441.7 276.565 446.753C274.524 451.481 272.059 455.821 268.819 459.532C265.792 462.989 262.294 465.795 258.709 468.336C251.524 473.417 243.733 477.413 237.23 483.807C235.328 485.674 233.575 487.749 231.655 489.593C229.713 491.468 227.593 492.988 225.287 494.109C220.794 496.288 216.022 497.608 211.445 499.489C202.585 503.132 193.925 507.522 185.544 512.606C179.436 516.311 173.482 520.391 167.713 524.816L163.602 524.43C171.953 517.802 180.7 511.899 189.741 506.796C198.192 502.026 206.903 497.969 215.789 494.632C220.426 492.887 225.283 491.603 229.265 488.02C231.197 486.279 232.936 484.25 234.77 482.36C236.362 480.72 238.05 479.216 239.794 477.813C246.768 472.235 254.567 468.364 261.492 462.699C264.853 459.95 267.985 456.767 270.462 452.882C273.349 448.351 275.29 443.157 277.219 438.014C279.107 432.967 281.022 427.866 283.72 423.325C286.327 418.931 289.815 414.853 289.956 409.212C290.084 404.198 287.649 399.581 284.921 396.106C281.958 392.336 278.162 389.655 274.604 386.756C271.005 383.83 267.475 380.595 265.015 376.251C263.107 372.888 261.842 369.093 261.123 365.114L263.794 365.362C264.115 366.891 264.525 368.392 265.041 369.855C266.679 374.494 269.374 378.195 272.668 381.267C276.211 384.567 280.157 387.211 283.669 390.552C286.997 393.715 289.988 397.779 291.505 402.605C293.04 407.49 292.741 412.555 290.5 417.204L290.497 417.204Z" fill="#9E5220"/>
<path d="M498.575 527.267C493.256 524.796 487.622 522.755 483.185 518.377C478.622 513.876 475.867 507.38 471.38 502.812C467.025 498.386 461.352 496.591 456.207 493.827C451.151 491.107 447.123 487.371 444.468 481.499C443.107 478.488 442.103 475.263 440.975 472.119C439.84 468.973 438.583 465.233 436.335 462.999C433.844 460.525 429.644 460.972 426.542 460.702L415.245 459.715C407.825 459.065 400.405 458.418 392.985 457.767C378.262 456.481 363.548 454.961 348.807 453.918C345.653 453.693 342.298 453.642 339.324 455.293C336.724 456.738 334.691 459.286 332.708 461.697C330.762 464.064 328.778 466.396 326.334 468.019C323.815 469.69 320.962 470.485 318.163 471.024C315.222 471.591 312.242 471.882 309.334 472.73C306.006 473.699 302.888 475.499 299.857 477.414C293.528 481.413 287.284 485.616 281.07 489.866C268.424 498.503 255.968 507.547 243.716 516.984C238.042 521.353 232.41 525.809 226.828 530.346L222.602 529.948C225.379 527.708 228.233 525.59 230.957 523.418C236.971 518.62 243.035 513.915 249.153 509.302C261.569 499.937 274.193 490.972 286.997 482.411C293.06 478.362 299.203 473.655 305.759 470.882C311.611 468.402 318.096 469.08 323.814 466.14C329.141 463.401 332.062 456.917 336.954 453.406C342.563 449.378 349.547 450.91 355.608 451.44C370.674 452.757 385.739 454.071 400.805 455.391C408.337 456.05 415.874 456.705 423.405 457.363C426.898 457.67 430.579 457.631 433.998 458.463C437.009 459.196 438.978 461.347 440.572 464.356C443.625 470.137 444.82 477.123 448.11 482.721C451.528 488.536 457.079 490.995 462.435 493.553C467.839 496.133 472.545 499.184 476.367 504.47C478.32 507.177 480.051 510.103 482.049 512.759C484.221 515.646 486.766 517.919 489.685 519.653C492.384 521.256 495.207 522.514 498.021 523.795L498.575 527.267Z" fill="#9E5220"/>
<path d="M151.207 324.279L157.708 323.665L162.181 371.018L155.68 371.633L151.207 324.279Z" fill="#72330F"/>
<path d="M169.404 376.488C169.464 377.119 169.461 377.749 169.397 378.378C169.331 379.012 169.207 379.628 169.018 380.235C168.833 380.841 168.589 381.425 168.289 381.982C167.986 382.54 167.636 383.065 167.231 383.553C166.827 384.042 166.378 384.484 165.887 384.886C165.396 385.286 164.868 385.635 164.307 385.93C163.746 386.229 163.164 386.466 162.555 386.647C161.949 386.83 161.33 386.951 160.697 387.011C160.066 387.071 159.436 387.067 158.803 387.001C158.174 386.938 157.554 386.814 156.951 386.625C156.345 386.44 155.761 386.196 155.204 385.895C154.646 385.592 154.122 385.242 153.633 384.838C153.145 384.433 152.699 383.984 152.3 383.493C151.901 383.001 151.552 382.473 151.253 381.913C150.958 381.352 150.717 380.77 150.537 380.16C150.357 379.553 150.235 378.935 150.176 378.304C150.116 377.671 150.119 377.04 150.183 376.411C150.246 375.778 150.373 375.161 150.558 374.555C150.747 373.948 150.991 373.368 151.291 372.807C151.591 372.249 151.945 371.728 152.349 371.239C152.753 370.751 153.202 370.305 153.693 369.906C154.184 369.504 154.712 369.155 155.273 368.859C155.831 368.564 156.416 368.323 157.022 368.143C157.631 367.959 158.25 367.841 158.88 367.781C159.514 367.722 160.144 367.722 160.774 367.788C161.406 367.852 162.023 367.979 162.629 368.164C163.235 368.35 163.819 368.594 164.377 368.897C164.934 369.197 165.459 369.551 165.947 369.955C166.436 370.359 166.878 370.806 167.28 371.297C167.679 371.791 168.028 372.316 168.323 372.877C168.622 373.438 168.86 374.02 169.043 374.629C169.223 375.236 169.345 375.854 169.404 376.488Z" fill="#72330F"/>
<path d="M163.893 318.232C163.952 318.863 163.952 319.496 163.886 320.126C163.822 320.755 163.695 321.375 163.51 321.982C163.325 322.588 163.081 323.169 162.777 323.726C162.477 324.284 162.124 324.809 161.72 325.297C161.316 325.786 160.87 326.231 160.375 326.63C159.884 327.03 159.359 327.378 158.799 327.677C158.238 327.973 157.653 328.21 157.046 328.394C156.437 328.574 155.819 328.696 155.188 328.755C154.558 328.815 153.924 328.811 153.295 328.748C152.662 328.682 152.046 328.557 151.439 328.372C150.833 328.184 150.252 327.939 149.692 327.64C149.135 327.339 148.613 326.986 148.125 326.581C147.636 326.177 147.191 325.728 146.788 325.237C146.389 324.745 146.041 324.221 145.745 323.66C145.447 323.099 145.209 322.514 145.025 321.907C144.845 321.301 144.724 320.679 144.664 320.048C144.604 319.418 144.608 318.785 144.671 318.155C144.737 317.525 144.862 316.905 145.05 316.299C145.235 315.692 145.479 315.112 145.779 314.554C146.082 313.996 146.436 313.472 146.84 312.983C147.244 312.495 147.69 312.049 148.182 311.65C148.676 311.251 149.2 310.902 149.761 310.603C150.322 310.308 150.904 310.07 151.513 309.887C152.12 309.707 152.741 309.585 153.372 309.525C154.002 309.466 154.632 309.469 155.265 309.532C155.895 309.599 156.514 309.723 157.12 309.908C157.727 310.097 158.308 310.341 158.865 310.641C159.425 310.941 159.947 311.295 160.435 311.699C160.924 312.103 161.369 312.553 161.768 313.044C162.171 313.535 162.519 314.06 162.815 314.621C163.11 315.182 163.351 315.767 163.531 316.373C163.715 316.98 163.833 317.602 163.893 318.232Z" fill="#72330F"/>
<path d="M459.719 295.139L466.223 294.524L476.652 404.939L470.148 405.554L459.719 295.139Z" fill="#72330F"/>
<path d="M483.871 410.41C483.931 411.041 483.928 411.674 483.864 412.303C483.798 412.933 483.674 413.553 483.485 414.16C483.3 414.766 483.056 415.347 482.756 415.904C482.453 416.465 482.102 416.986 481.698 417.475C481.294 417.964 480.845 418.409 480.354 418.808C479.863 419.211 479.335 419.556 478.774 419.855C478.213 420.151 477.631 420.391 477.022 420.572C476.416 420.755 475.797 420.873 475.164 420.933C474.533 420.993 473.903 420.992 473.27 420.926C472.641 420.863 472.021 420.735 471.415 420.55C470.811 420.362 470.228 420.121 469.67 419.817C469.113 419.517 468.588 419.164 468.1 418.759C467.611 418.355 467.166 417.909 466.767 417.414C466.368 416.923 466.019 416.398 465.721 415.838C465.425 415.277 465.184 414.692 465.004 414.085C464.821 413.479 464.702 412.857 464.643 412.226C464.583 411.596 464.583 410.966 464.649 410.333C464.713 409.703 464.84 409.083 465.026 408.48C465.214 407.873 465.458 407.289 465.758 406.732C466.058 406.174 466.411 405.65 466.816 405.161C467.22 404.673 467.669 404.23 468.16 403.828C468.651 403.429 469.179 403.08 469.737 402.785C470.297 402.486 470.883 402.248 471.489 402.065C472.098 401.884 472.717 401.763 473.347 401.703C473.981 401.644 474.611 401.647 475.24 401.71C475.873 401.777 476.49 401.901 477.096 402.089C477.703 402.275 478.286 402.519 478.843 402.819C479.401 403.122 479.925 403.473 480.414 403.877C480.902 404.281 481.345 404.731 481.747 405.222C482.146 405.713 482.495 406.241 482.79 406.802C483.089 407.359 483.327 407.945 483.51 408.551C483.69 409.161 483.812 409.779 483.871 410.41Z" fill="#72330F"/>
<path d="M472.404 289.092C472.464 289.722 472.464 290.355 472.398 290.985C472.334 291.615 472.207 292.235 472.022 292.841C471.833 293.448 471.592 294.028 471.289 294.586C470.989 295.143 470.636 295.668 470.231 296.157C469.827 296.645 469.378 297.091 468.887 297.49C468.396 297.889 467.871 298.238 467.311 298.536C466.75 298.832 466.164 299.07 465.558 299.253C464.949 299.433 464.33 299.555 463.7 299.614C463.069 299.674 462.436 299.671 461.807 299.607C461.174 299.541 460.557 299.417 459.951 299.232C459.345 299.043 458.761 298.799 458.204 298.499C457.646 298.199 457.125 297.845 456.633 297.441C456.145 297.037 455.702 296.587 455.3 296.096C454.901 295.605 454.552 295.08 454.257 294.519C453.958 293.958 453.72 293.373 453.537 292.767C453.357 292.16 453.235 291.538 453.176 290.908C453.116 290.277 453.119 289.644 453.183 289.014C453.249 288.384 453.373 287.765 453.562 287.158C453.747 286.552 453.991 285.971 454.291 285.414C454.594 284.856 454.945 284.331 455.349 283.843C455.756 283.354 456.202 282.909 456.693 282.51C457.185 282.11 457.712 281.761 458.273 281.463C458.834 281.167 459.416 280.93 460.025 280.746C460.632 280.566 461.253 280.444 461.883 280.385C462.514 280.325 463.144 280.329 463.777 280.392C464.406 280.458 465.026 280.582 465.632 280.768C466.239 280.956 466.819 281.2 467.377 281.5C467.934 281.801 468.459 282.154 468.947 282.558C469.436 282.963 469.881 283.412 470.28 283.903C470.682 284.394 471.028 284.919 471.326 285.48C471.622 286.041 471.863 286.626 472.043 287.233C472.226 287.839 472.345 288.461 472.404 289.092Z" fill="#72330F"/>
<path d="M151.17 207.59C151.23 208.223 151.23 208.853 151.163 209.483C151.1 210.116 150.973 210.733 150.787 211.339C150.599 211.946 150.355 212.526 150.055 213.087C149.755 213.644 149.401 214.166 148.997 214.655C148.593 215.143 148.144 215.589 147.653 215.988C147.162 216.39 146.634 216.739 146.076 217.034C145.515 217.33 144.93 217.571 144.324 217.751C143.715 217.935 143.096 218.053 142.465 218.112C141.832 218.172 141.202 218.172 140.572 218.105C139.94 218.042 139.323 217.915 138.717 217.73C138.11 217.544 137.527 217.3 136.969 216.997C136.412 216.697 135.887 216.343 135.399 215.939C134.91 215.535 134.468 215.088 134.066 214.597C133.667 214.103 133.318 213.578 133.022 213.017C132.724 212.456 132.486 211.874 132.303 211.265C132.123 210.658 132.001 210.04 131.941 209.406C131.882 208.775 131.885 208.145 131.948 207.512C132.015 206.882 132.139 206.263 132.327 205.659C132.513 205.053 132.757 204.469 133.057 203.912C133.36 203.354 133.71 202.829 134.114 202.341C134.518 201.852 134.968 201.41 135.459 201.008C135.95 200.608 136.478 200.259 137.039 199.964C137.599 199.665 138.181 199.428 138.791 199.244C139.397 199.064 140.016 198.943 140.649 198.883C141.28 198.823 141.91 198.827 142.542 198.89C143.172 198.956 143.791 199.08 144.398 199.269C145.001 199.454 145.585 199.698 146.142 199.999C146.7 200.302 147.224 200.652 147.713 201.056C148.201 201.461 148.647 201.91 149.046 202.401C149.445 202.893 149.794 203.42 150.092 203.981C150.388 204.539 150.629 205.124 150.809 205.731C150.992 206.34 151.111 206.959 151.17 207.59Z" fill="#72330F"/>
<path d="M459.68 178.449C459.74 179.083 459.736 179.713 459.673 180.343C459.61 180.975 459.482 181.592 459.297 182.198C459.109 182.805 458.865 183.386 458.565 183.946C458.265 184.504 457.911 185.025 457.507 185.514C457.103 186.003 456.654 186.448 456.162 186.847C455.671 187.25 455.144 187.599 454.583 187.894C454.025 188.189 453.44 188.43 452.834 188.611C452.224 188.794 451.606 188.912 450.975 188.972C450.342 189.032 449.712 189.031 449.082 188.965C448.45 188.902 447.833 188.774 447.227 188.589C446.62 188.404 446.037 188.16 445.479 187.856C444.922 187.556 444.397 187.203 443.909 186.798C443.42 186.394 442.978 185.948 442.576 185.457C442.176 184.962 441.828 184.438 441.532 183.876C441.234 183.316 440.996 182.733 440.812 182.124C440.632 181.517 440.511 180.899 440.451 180.265C440.392 179.635 440.395 179.004 440.458 178.372C440.525 177.742 440.649 177.122 440.837 176.519C441.022 175.912 441.266 175.328 441.566 174.771C441.87 174.213 442.22 173.689 442.624 173.2C443.028 172.712 443.478 172.269 443.969 171.867C444.46 171.468 444.988 171.119 445.548 170.823C446.109 170.525 446.691 170.287 447.301 170.103C447.907 169.923 448.525 169.802 449.159 169.742C449.789 169.683 450.419 169.686 451.052 169.749C451.682 169.816 452.301 169.94 452.905 170.128C453.511 170.314 454.095 170.558 454.652 170.858C455.21 171.161 455.734 171.512 456.222 171.916C456.711 172.32 457.156 172.769 457.556 173.261C457.955 173.752 458.304 174.28 458.602 174.841C458.897 175.399 459.138 175.984 459.319 176.59C459.499 177.2 459.62 177.818 459.68 178.449Z" fill="#72330F"/>
</svg>
